<?xml version="1.0" encoding="UTF-8"?>
<svg xmlns="http://www.w3.org/2000/svg" viewBox="0 0 990 331">
  <defs>
    <style>
      .cls-1, .cls-2 {
        fill: #000;
      }

      .cls-1, .cls-3 {
        stroke-width: 0px;
      }

      .cls-4, .cls-2 {
        stroke: #dbf436;
      }

      .cls-4, .cls-2, .cls-5, .cls-6 {
        stroke-miterlimit: 10;
        stroke-width: 10px;
      }

      .cls-4, .cls-6 {
        fill: none;
      }

      .cls-3 {
        fill: #fff;
      }

      .cls-5 {
        fill: #dbf436;
      }

      .cls-5, .cls-6 {
        stroke: #000;
      }
    </style>
  </defs>
  <g id="_1b" data-name="1b" data-target="first-draft">
    <circle class="cls-2" cx="97.38" cy="99.06" r="64.28"/>
  </g>
  <g id="_2b" data-name="2b" data-target="review-revision">
    <circle class="cls-2" cx="268.51" cy="99.06" r="64.28"/>
  </g>
  <g id="_3b" data-name="3b" data-target="design-copy">
    <circle class="cls-2" cx="439.63" cy="99.06" r="64.28"/>
  </g>
  <g id="_1a" data-name="1a" data-target="content-development">
    <circle class="cls-5" cx="195.02" cy="241.52" r="64.28"/>
  </g>
  <g id="_2a" data-name="2a" data-target="first-draft-card">
    <circle class="cls-5" cx="362.03" cy="241.52" r="64.28"/>
  </g>
  <g id="_3a" data-name="3a" data-target="card-review-revision">
    <circle class="cls-5" cx="529.04" cy="241.52" r="64.28"/>
  </g>
  <g id="_4a" data-name="4a" data-target="card-design-copy">
    <circle class="cls-5" cx="696.04" cy="241.52" r="64.28"/>
  </g>
  <g id="SVG_Static_Components" data-name="SVG Static Components">
    <polyline class="cls-6" points="93.37 101.03 788.11 101.03 858.01 171.97"/>
    <g>
      <path class="cls-3" d="M81.08,91.31v2h1.4c.33,0,.56.06.7.19.14.13.21.29.21.5s-.07.36-.21.49c-.14.13-.37.19-.7.19h-2.98c-.33,0-.56-.06-.7-.19-.14-.13-.21-.29-.21-.5s.07-.36.21-.49c.14-.13.38-.19.7-.19h.21v-5.34h-.21c-.33,0-.56-.06-.7-.19-.14-.13-.21-.29-.21-.5s.07-.37.21-.5c.14-.13.37-.19.7-.19h6.42v2.09c0,.32-.06.56-.19.7s-.29.21-.5.21-.36-.07-.49-.21-.19-.37-.19-.7v-.72h-3.48v1.98h1.2c0-.36.03-.58.1-.69.14-.22.33-.33.59-.33.2,0,.36.07.49.21s.19.37.19.7v1.57c0,.33-.06.56-.19.7-.13.14-.29.21-.5.21-.25,0-.44-.11-.58-.33-.07-.1-.1-.33-.1-.69h-1.2Z"/>
      <path class="cls-3" d="M90.87,88.62v4.68h1.64c.33,0,.56.06.7.19.14.13.21.29.21.5s-.07.36-.21.49c-.14.13-.37.19-.7.19h-4.64c-.33,0-.56-.06-.7-.19-.14-.13-.21-.29-.21-.5s.07-.36.21-.49c.14-.13.37-.19.7-.19h1.64v-3.31h-1.1c-.32,0-.56-.06-.7-.19-.14-.13-.21-.29-.21-.5s.07-.36.21-.49c.14-.13.37-.19.7-.19h2.46ZM90.69,86.03v1.44h-1.62v-1.44h1.62Z"/>
      <path class="cls-3" d="M98.1,88.62v.85c.57-.41,1.02-.69,1.35-.83s.64-.21.93-.21c.44,0,.87.16,1.29.49.28.22.43.45.43.68,0,.2-.07.36-.2.5-.14.13-.3.2-.49.2-.17,0-.35-.08-.53-.25-.19-.17-.35-.25-.5-.25-.19,0-.48.12-.86.36-.38.24-.85.6-1.42,1.08v2.06h1.94c.33,0,.56.06.7.19.14.13.21.29.21.5s-.07.36-.21.49c-.14.13-.37.19-.7.19h-4.12c-.33,0-.56-.06-.7-.19-.14-.13-.21-.29-.21-.5s.07-.36.21-.49c.14-.13.37-.19.7-.19h.81v-3.31h-.49c-.33,0-.56-.06-.7-.19-.14-.13-.21-.29-.21-.5s.07-.36.21-.49c.14-.13.37-.19.7-.19h1.86Z"/>
      <path class="cls-3" d="M108.04,90.22c-.22-.14-.45-.24-.7-.31-.24-.07-.5-.1-.77-.1-.53,0-.95.09-1.26.26-.14.08-.21.16-.21.25,0,.1.09.2.28.3.14.07.46.14.95.21.91.12,1.54.25,1.89.37.47.17.83.41,1.08.73.25.32.38.67.38,1.03,0,.49-.22.9-.65,1.23-.62.47-1.42.71-2.4.71-.4,0-.76-.03-1.1-.1-.33-.07-.64-.17-.92-.3-.07.06-.14.1-.21.13-.08.03-.15.05-.23.05-.21,0-.38-.07-.51-.21-.13-.14-.19-.37-.19-.7v-.46c0-.33.06-.56.19-.7.13-.14.29-.21.5-.21.16,0,.3.05.41.14.11.09.2.25.26.47.21.18.46.31.75.4s.63.14,1.01.14c.63,0,1.11-.1,1.46-.29.16-.1.25-.2.25-.31,0-.18-.12-.32-.35-.44s-.72-.21-1.46-.29c-1.1-.12-1.83-.34-2.2-.67-.37-.32-.55-.72-.55-1.2s.21-.89.62-1.22c.56-.44,1.29-.67,2.2-.67.31,0,.62.03.91.09.29.06.57.15.84.28.08-.06.16-.11.24-.14s.14-.05.2-.05c.19,0,.34.07.47.21.12.14.19.37.19.7v.33c0,.3-.04.5-.11.61-.14.2-.34.31-.58.31-.16,0-.31-.05-.43-.15-.12-.1-.2-.24-.24-.41Z"/>
      <path class="cls-3" d="M114.41,89.99v2.74c0,.29.06.49.18.58.19.15.52.22,1,.22.7,0,1.34-.15,1.93-.45.23-.12.4-.17.53-.17.18,0,.33.07.46.2s.2.29.2.49c0,.18-.07.33-.21.46-.22.21-.65.4-1.29.58-.64.17-1.18.26-1.62.26-.85,0-1.48-.18-1.91-.55-.42-.37-.64-.82-.64-1.35v-3h-.49c-.33,0-.56-.06-.7-.19-.14-.13-.21-.29-.21-.5s.07-.36.21-.49c.14-.13.37-.19.7-.19h.49v-1.23c0-.33.06-.56.19-.7.13-.14.29-.21.5-.21s.36.07.49.21c.13.14.19.37.19.7v1.23h2.52c.33,0,.56.06.7.19.14.13.21.29.21.5s-.07.36-.21.49c-.14.13-.37.19-.7.19h-2.52Z"/>
      <path class="cls-3" d="M78.96,109.66v-5.34c-.29,0-.5-.07-.64-.2s-.21-.29-.21-.49.07-.37.21-.5c.14-.13.37-.19.7-.19h2.86c.44,0,.88.09,1.3.25s.76.37,1.02.63c.2.19.4.45.61.79.21.33.37.66.48.99s.16.73.16,1.21v.65c0,.58-.1,1.09-.29,1.53-.2.45-.45.81-.77,1.09-.32.28-.62.49-.9.62-.44.21-1.02.31-1.72.31h-2.74c-.33,0-.56-.06-.7-.19-.14-.13-.21-.29-.21-.5s.07-.36.21-.49c.14-.13.35-.19.64-.19ZM80.33,109.66h1.45c.54,0,.95-.08,1.23-.23.36-.2.63-.46.81-.78.18-.31.27-.72.27-1.22v-.65c0-.43-.08-.81-.25-1.13-.26-.51-.55-.85-.87-1.04s-.72-.28-1.21-.28h-1.44v5.34Z"/>
      <path class="cls-3" d="M89.92,104.98v.85c.57-.41,1.02-.69,1.35-.83s.64-.21.93-.21c.44,0,.87.16,1.29.49.28.22.43.45.43.68,0,.2-.07.36-.2.5-.14.13-.3.2-.49.2-.17,0-.35-.08-.53-.25-.19-.17-.35-.25-.5-.25-.19,0-.48.12-.86.36-.38.24-.85.6-1.42,1.08v2.06h1.94c.33,0,.56.06.7.19.14.13.21.29.21.5s-.07.36-.21.49c-.14.13-.37.19-.7.19h-4.12c-.33,0-.56-.06-.7-.19-.14-.13-.21-.29-.21-.5s.07-.36.21-.49c.14-.13.37-.19.7-.19h.81v-3.31h-.49c-.33,0-.56-.06-.7-.19-.14-.13-.21-.29-.21-.5s.07-.36.21-.49c.14-.13.37-.19.7-.19h1.86Z"/>
      <path class="cls-3" d="M99.61,111.03v-.32c-.34.18-.72.32-1.13.41s-.79.14-1.12.14c-.73,0-1.33-.19-1.78-.58-.46-.39-.69-.82-.69-1.29,0-.57.29-1.1.88-1.59.58-.49,1.39-.74,2.42-.74.41,0,.89.04,1.43.13v-.33c0-.2-.09-.37-.26-.5s-.51-.19-1-.19c-.4,0-.93.08-1.57.24-.24.06-.43.09-.56.09-.18,0-.34-.07-.46-.2s-.19-.3-.19-.5c0-.12.02-.22.07-.3.04-.08.11-.15.19-.2.08-.05.25-.11.5-.18.34-.09.68-.17,1.03-.22s.67-.08.95-.08c.85,0,1.51.18,1.97.55s.7.87.7,1.5v2.81h.23c.33,0,.56.06.7.19.14.13.21.29.21.5s-.07.36-.21.49c-.14.13-.37.19-.7.19h-1.6ZM99.61,108.59c-.55-.11-1.05-.16-1.51-.16-.55,0-1.03.14-1.43.41-.25.17-.37.35-.37.53,0,.13.06.23.18.31.22.15.53.22.91.22.33,0,.7-.06,1.12-.19.42-.13.78-.3,1.11-.53v-.59Z"/>
      <path class="cls-3" d="M106.55,106.35v3.31h1.94c.33,0,.56.06.7.19.14.13.21.29.21.5s-.07.36-.21.49c-.14.13-.37.19-.7.19h-4.12c-.33,0-.56-.06-.7-.19-.14-.13-.21-.29-.21-.5s.07-.36.21-.49c.14-.13.37-.19.7-.19h.81v-3.31h-.65c-.33,0-.56-.06-.7-.19-.14-.13-.21-.29-.21-.5s.07-.36.21-.49c.14-.13.37-.19.7-.19h.65v-.52c0-.59.22-1.09.67-1.48.45-.39,1.09-.59,1.94-.59.38,0,.81.03,1.31.1.49.07.81.17.95.29.14.12.21.28.21.48,0,.21-.06.38-.19.51s-.28.2-.46.2c-.08,0-.21-.02-.38-.05-.56-.11-1.06-.17-1.5-.17s-.76.07-.94.2c-.17.13-.26.3-.26.5v.52h2.1c.33,0,.56.06.7.19.14.13.21.29.21.5s-.07.36-.21.49c-.14.13-.37.19-.7.19h-2.1Z"/>
      <path class="cls-3" d="M114.41,106.35v2.74c0,.29.06.49.18.58.19.15.52.22,1,.22.7,0,1.34-.15,1.93-.45.23-.12.4-.17.53-.17.18,0,.33.07.46.2s.2.29.2.49c0,.18-.07.33-.21.46-.22.21-.65.4-1.29.58-.64.17-1.18.26-1.62.26-.85,0-1.48-.18-1.91-.55-.42-.37-.64-.82-.64-1.35v-3h-.49c-.33,0-.56-.06-.7-.19-.14-.13-.21-.29-.21-.5s.07-.36.21-.49c.14-.13.37-.19.7-.19h.49v-1.23c0-.33.06-.56.19-.7.13-.14.29-.21.5-.21s.36.07.49.21c.13.14.19.37.19.7v1.23h2.52c.33,0,.56.06.7.19.14.13.21.29.21.5s-.07.36-.21.49c-.14.13-.37.19-.7.19h-2.52Z"/>
    </g>
    <g>
      <path class="cls-3" d="M247.64,82.17v1.72h.49c.33,0,.56.06.7.19.14.13.21.29.21.5s-.07.36-.21.49c-.14.13-.37.19-.7.19h-2.07c-.33,0-.56-.06-.7-.19-.14-.13-.21-.29-.21-.5s.07-.36.21-.49c.14-.13.38-.19.7-.19h.21v-5.34h-.21c-.33,0-.56-.06-.7-.19-.14-.13-.21-.29-.21-.5s.07-.37.21-.5c.14-.13.37-.19.7-.19h3.09c.96,0,1.71.25,2.24.72.53.48.8,1.06.8,1.74,0,.43-.12.81-.37,1.16-.25.35-.62.66-1.12.93.29.25.6.58.92.97.2.25.48.65.83,1.18.35,0,.57.04.69.11.2.14.3.33.3.58,0,.2-.07.36-.21.49-.14.13-.37.19-.7.19h-.78c-1.11-1.71-2.02-2.74-2.75-3.08h-1.35ZM247.64,80.8h1.06c.4,0,.75-.06,1.06-.18.42-.16.7-.33.84-.51.14-.18.22-.35.22-.53,0-.26-.14-.5-.41-.71-.28-.22-.68-.33-1.21-.33h-1.56v2.26Z"/>
      <path class="cls-3" d="M260.66,82.92h-5.6c.14.36.39.64.76.86.36.22.85.33,1.47.33.51,0,1.18-.11,2.02-.33.35-.09.59-.13.72-.13.18,0,.33.06.46.19s.19.29.19.49c0,.18-.07.33-.2.45-.18.16-.61.32-1.3.47-.69.15-1.35.22-1.98.22-1.09,0-1.96-.31-2.62-.93-.65-.62-.98-1.38-.98-2.28,0-.96.35-1.74,1.06-2.34s1.52-.9,2.45-.9c.55,0,1.06.1,1.53.29s.81.41,1.04.63c.32.33.58.73.79,1.22.14.34.21.73.21,1.17v.58ZM259.15,81.55c-.21-.39-.48-.68-.82-.88-.34-.19-.74-.29-1.21-.29s-.86.1-1.2.29c-.34.19-.61.49-.83.88h4.05Z"/>
      <path class="cls-3" d="M265.43,83.59l1.47-3.02c-.36,0-.6-.03-.7-.09-.22-.14-.33-.33-.33-.59,0-.2.07-.36.21-.49.14-.13.37-.19.7-.19h1.87c.33,0,.56.06.7.19.14.13.21.29.21.5s-.07.36-.21.49c-.14.13-.37.19-.7.19h-.23l-2.28,4.68h-1.42l-2.28-4.68h-.19c-.33,0-.56-.06-.7-.19-.14-.13-.21-.29-.21-.5s.07-.36.21-.49c.14-.13.37-.19.7-.19h1.83c.32,0,.56.06.7.19.14.13.21.29.21.5,0,.25-.11.45-.32.58-.11.07-.34.1-.71.1l1.49,3.02Z"/>
      <path class="cls-3" d="M274.27,79.2v4.68h1.64c.33,0,.56.06.7.19.14.13.21.29.21.5s-.07.36-.21.49c-.14.13-.37.19-.7.19h-4.64c-.33,0-.56-.06-.7-.19-.14-.13-.21-.29-.21-.5s.07-.36.21-.49c.14-.13.37-.19.7-.19h1.64v-3.31h-1.1c-.32,0-.56-.06-.7-.19-.14-.13-.21-.29-.21-.5s.07-.36.21-.49c.14-.13.37-.19.7-.19h2.46ZM274.09,76.61v1.44h-1.62v-1.44h1.62Z"/>
      <path class="cls-3" d="M285.21,82.92h-5.6c.14.36.39.64.75.86.36.22.85.33,1.47.33.51,0,1.18-.11,2.02-.33.35-.09.59-.13.72-.13.18,0,.34.06.46.19s.19.29.19.49c0,.18-.07.33-.2.45-.18.16-.61.32-1.3.47-.69.15-1.35.22-1.98.22-1.09,0-1.96-.31-2.62-.93-.66-.62-.98-1.38-.98-2.28,0-.96.35-1.74,1.06-2.34.71-.6,1.52-.9,2.45-.9.55,0,1.06.1,1.53.29s.81.41,1.04.63c.32.33.58.73.79,1.22.14.34.21.73.21,1.17v.58ZM283.69,81.55c-.21-.39-.48-.68-.82-.88-.34-.19-.74-.29-1.21-.29s-.86.1-1.2.29c-.34.19-.61.49-.83.88h4.05Z"/>
      <path class="cls-3" d="M289.97,82.73l-.95,2.52h-1.29l-1.14-4.68c-.25-.01-.44-.08-.56-.21s-.19-.29-.19-.48.07-.36.21-.49c.14-.13.37-.19.7-.19h1.27c.33,0,.56.06.7.19.14.13.21.29.21.5s-.08.38-.24.52c-.12.11-.36.16-.71.16l.52,2.16.85-2.22h1.21l.85,2.22.53-2.16c-.34,0-.56-.03-.67-.1-.21-.14-.32-.33-.32-.59,0-.2.07-.36.21-.49.14-.13.37-.19.7-.19h1.28c.33,0,.56.06.7.19.14.13.21.29.21.5,0,.18-.06.34-.18.46-.12.13-.3.2-.54.22l-1.12,4.68h-1.26l-1-2.52Z"/>
      <path class="cls-3" d="M270.19,98.42v2.28c0,.33-.06.56-.19.7s-.29.21-.49.21-.37-.07-.5-.21c-.13-.14-.19-.37-.19-.7v-2.28h-1.95c-.33,0-.56-.06-.7-.19-.14-.13-.21-.29-.21-.5s.07-.37.21-.5c.14-.13.37-.19.7-.18h1.95v-2.28c0-.32.06-.56.19-.7.13-.14.29-.21.5-.21s.37.07.5.21c.13.14.19.37.19.7v2.28s1.94,0,1.94,0c.33,0,.56.06.7.19s.21.29.21.49-.07.37-.21.5c-.14.13-.37.19-.7.19h-1.95Z"/>
      <path class="cls-3" d="M239.46,114.89v1.72h.49c.33,0,.56.06.7.19.14.13.21.29.21.5s-.07.36-.21.49c-.14.13-.37.19-.7.19h-2.07c-.33,0-.56-.06-.7-.19-.14-.13-.21-.29-.21-.5s.07-.36.21-.49c.14-.13.38-.19.7-.19h.21v-5.34h-.21c-.33,0-.56-.06-.7-.19-.14-.13-.21-.29-.21-.5s.07-.37.21-.5c.14-.13.37-.19.7-.19h3.09c.96,0,1.71.25,2.24.72.53.48.79,1.06.79,1.74,0,.43-.12.81-.37,1.16-.25.35-.62.66-1.12.93.29.25.6.58.93.97.2.25.48.65.83,1.18.35,0,.58.04.69.11.2.14.3.33.3.58,0,.2-.07.36-.21.49-.14.13-.37.19-.7.19h-.78c-1.1-1.71-2.02-2.74-2.75-3.08h-1.35ZM239.46,113.52h1.07c.39,0,.75-.06,1.06-.18.42-.16.7-.33.84-.51s.22-.35.22-.53c0-.26-.14-.5-.41-.71s-.68-.33-1.21-.33h-1.56v2.26Z"/>
      <path class="cls-3" d="M252.48,115.64h-5.6c.14.36.39.64.75.86.36.22.85.33,1.47.33.51,0,1.18-.11,2.02-.33.35-.09.59-.13.72-.13.18,0,.34.06.46.19s.19.29.19.49c0,.18-.07.33-.2.45-.18.16-.61.32-1.3.47-.69.15-1.35.22-1.98.22-1.09,0-1.96-.31-2.62-.93-.66-.62-.98-1.38-.98-2.28,0-.96.35-1.74,1.06-2.34.71-.6,1.52-.9,2.45-.9.55,0,1.06.1,1.53.29s.81.41,1.04.63c.32.33.58.73.79,1.22.14.34.21.73.21,1.17v.58ZM250.96,114.28c-.21-.39-.48-.68-.82-.88-.34-.19-.74-.29-1.21-.29s-.86.1-1.2.29c-.34.19-.61.49-.83.88h4.05Z"/>
      <path class="cls-3" d="M257.24,116.31l1.47-3.02c-.36,0-.6-.03-.7-.09-.22-.14-.33-.33-.33-.59,0-.2.07-.36.21-.49.14-.13.37-.19.7-.19h1.87c.33,0,.56.06.7.19.14.13.21.29.21.5s-.07.36-.21.49c-.14.13-.37.19-.7.19h-.23l-2.28,4.68h-1.42l-2.28-4.68h-.19c-.33,0-.56-.06-.7-.19-.14-.13-.21-.29-.21-.5s.07-.36.21-.49c.14-.13.37-.19.7-.19h1.83c.32,0,.56.06.7.19.14.13.21.29.21.5,0,.25-.11.45-.32.58-.11.07-.34.1-.71.1l1.48,3.02Z"/>
      <path class="cls-3" d="M266.09,111.93v4.68h1.64c.33,0,.56.06.7.19.14.13.21.29.21.5s-.07.36-.21.49c-.14.13-.37.19-.7.19h-4.64c-.33,0-.56-.06-.7-.19-.14-.13-.21-.29-.21-.5s.07-.36.21-.49c.14-.13.37-.19.7-.19h1.64v-3.31h-1.1c-.32,0-.56-.06-.7-.19-.14-.13-.21-.29-.21-.5s.07-.36.21-.49c.14-.13.37-.19.7-.19h2.46ZM265.9,109.34v1.44h-1.62v-1.44h1.62Z"/>
      <path class="cls-3" d="M275.07,113.52c-.22-.14-.46-.24-.7-.31-.24-.07-.5-.1-.77-.1-.53,0-.95.09-1.26.26-.14.08-.21.16-.21.25,0,.1.09.2.28.3.14.07.46.14.95.21.91.12,1.54.25,1.89.37.47.17.83.41,1.08.73.25.32.38.67.38,1.03,0,.49-.22.9-.65,1.23-.62.47-1.42.71-2.4.71-.39,0-.76-.03-1.09-.1-.33-.07-.64-.17-.92-.3-.07.06-.14.1-.21.13-.08.03-.15.05-.23.05-.21,0-.38-.07-.51-.21-.13-.14-.19-.37-.19-.7v-.46c0-.33.06-.56.19-.7.13-.14.29-.21.5-.21.16,0,.3.05.41.14s.2.25.26.47c.21.18.46.31.75.4s.63.14,1.01.14c.63,0,1.11-.1,1.46-.29.16-.1.25-.2.25-.31,0-.18-.12-.32-.35-.44s-.72-.21-1.46-.29c-1.1-.12-1.83-.34-2.2-.67-.37-.32-.55-.72-.55-1.2s.21-.89.62-1.22c.56-.44,1.29-.67,2.2-.67.31,0,.62.03.91.09s.57.15.84.28c.08-.06.16-.11.24-.14s.14-.05.2-.05c.19,0,.34.07.47.21.12.14.19.37.19.7v.33c0,.3-.04.5-.11.61-.14.2-.34.31-.58.31-.16,0-.31-.05-.43-.15-.12-.1-.2-.24-.24-.41Z"/>
      <path class="cls-3" d="M282.46,111.93v4.68h1.64c.33,0,.56.06.7.19.14.13.21.29.21.5s-.07.36-.21.49c-.14.13-.37.19-.7.19h-4.64c-.33,0-.56-.06-.7-.19-.14-.13-.21-.29-.21-.5s.07-.36.21-.49c.14-.13.37-.19.7-.19h1.64v-3.31h-1.1c-.32,0-.56-.06-.7-.19-.14-.13-.21-.29-.21-.5s.07-.36.21-.49c.14-.13.37-.19.7-.19h2.46ZM282.27,109.34v1.44h-1.62v-1.44h1.62Z"/>
      <path class="cls-3" d="M293.51,115.06c0,.52-.15,1.03-.44,1.52-.29.49-.72.88-1.3,1.17-.57.29-1.17.44-1.8.44s-1.22-.14-1.78-.43-1-.68-1.3-1.17c-.3-.49-.45-1.01-.45-1.54s.15-1.08.45-1.61c.3-.53.74-.94,1.3-1.24.57-.3,1.16-.45,1.77-.45s1.22.15,1.79.46c.58.31,1.01.72,1.3,1.25s.44,1.06.44,1.61ZM292.14,115.07c0-.44-.16-.84-.47-1.21-.43-.5-1-.75-1.7-.75-.62,0-1.13.2-1.54.59-.41.4-.62.85-.62,1.37,0,.43.21.82.62,1.19.42.37.93.56,1.54.56s1.13-.18,1.54-.56c.42-.37.63-.77.63-1.2Z"/>
      <path class="cls-3" d="M296.76,111.93v.46c.25-.21.52-.37.82-.48.3-.11.62-.16.97-.16.81,0,1.45.25,1.92.75.37.4.56.92.56,1.57v2.54c.29,0,.5.06.64.19.14.13.21.29.21.5s-.07.36-.21.49c-.14.13-.37.19-.7.19h-1.23c-.33,0-.56-.06-.7-.19-.14-.13-.21-.29-.21-.5s.07-.36.21-.49c.14-.13.35-.19.64-.19v-2.58c0-.3-.08-.51-.24-.65-.21-.18-.52-.27-.94-.27-.31,0-.59.06-.83.18-.24.12-.54.38-.9.78v2.54c.35,0,.58.03.68.1.22.13.33.33.33.59,0,.2-.07.36-.21.49-.14.13-.37.19-.7.19h-1.55c-.33,0-.56-.06-.7-.19-.14-.13-.21-.29-.21-.5,0-.25.11-.44.32-.58.11-.07.33-.1.69-.1v-3.31c-.29,0-.5-.06-.64-.19s-.21-.29-.21-.49.07-.36.21-.49c.14-.13.37-.19.7-.19h1.3Z"/>
    </g>
    <g>
      <path class="cls-3" d="M417.12,84.47v-5.34c-.29,0-.5-.07-.64-.2s-.21-.29-.21-.49.07-.37.21-.5.37-.19.7-.19h2.86c.44,0,.88.09,1.3.25s.76.37,1.02.63c.2.19.4.45.61.79.21.33.37.66.48.99s.16.73.16,1.21v.65c0,.58-.1,1.09-.29,1.53-.2.45-.45.81-.77,1.09-.32.28-.62.49-.9.62-.44.21-1.02.31-1.72.31h-2.74c-.33,0-.56-.06-.7-.19s-.21-.29-.21-.5.07-.36.21-.49.35-.19.64-.19ZM418.49,84.47h1.45c.54,0,.95-.08,1.23-.23.36-.2.63-.46.81-.78.18-.31.27-.72.27-1.22v-.64c0-.43-.08-.81-.25-1.13-.26-.51-.55-.85-.87-1.04-.32-.19-.72-.28-1.21-.28h-1.44v5.34Z"/>
      <path class="cls-3" d="M431.78,83.51h-5.6c.14.36.39.64.76.86s.85.33,1.47.33c.51,0,1.18-.11,2.02-.33.35-.09.59-.13.72-.13.18,0,.34.06.46.19s.19.29.19.48c0,.18-.07.33-.2.45-.18.16-.61.32-1.3.47-.69.15-1.35.22-1.98.22-1.09,0-1.96-.31-2.62-.93s-.98-1.38-.98-2.28c0-.96.35-1.74,1.06-2.34.71-.6,1.52-.9,2.45-.9.55,0,1.06.1,1.53.29s.81.41,1.04.63c.32.33.58.73.79,1.22.14.34.21.73.21,1.17v.58ZM430.27,82.14c-.21-.39-.48-.68-.82-.88s-.74-.29-1.21-.29-.86.1-1.2.29-.61.49-.83.88h4.05Z"/>
      <path class="cls-3" d="M438.02,81.39c-.22-.14-.45-.24-.7-.31s-.5-.1-.77-.1c-.53,0-.95.09-1.26.26-.14.08-.21.16-.21.25,0,.1.09.2.28.3.14.07.46.14.95.21.91.12,1.54.25,1.89.37.47.16.83.41,1.08.73.25.32.38.67.38,1.03,0,.49-.22.9-.65,1.22-.62.47-1.42.71-2.4.71-.4,0-.76-.04-1.1-.1s-.64-.17-.92-.3c-.07.06-.14.1-.21.13-.08.03-.15.05-.23.05-.21,0-.38-.07-.51-.21-.13-.14-.19-.37-.19-.7v-.46c0-.33.06-.56.19-.7s.29-.21.5-.21c.16,0,.3.04.41.14.11.09.2.25.26.47.21.18.46.31.75.4.29.09.63.14,1.01.14.63,0,1.11-.1,1.46-.29.16-.1.25-.2.25-.31,0-.18-.12-.32-.35-.44s-.72-.21-1.46-.29c-1.1-.12-1.83-.34-2.2-.67-.37-.32-.55-.72-.55-1.2s.21-.89.62-1.22c.56-.44,1.29-.67,2.2-.67.31,0,.62.03.91.09.29.06.57.15.84.28.08-.06.16-.11.24-.14s.14-.05.2-.05c.19,0,.34.07.47.21.12.14.19.37.19.7v.33c0,.3-.04.5-.11.61-.14.2-.34.31-.58.31-.16,0-.31-.05-.43-.15-.12-.1-.2-.24-.24-.41Z"/>
      <path class="cls-3" d="M445.4,79.79v4.68h1.64c.33,0,.56.06.7.19.14.12.21.29.21.5s-.07.36-.21.49c-.14.13-.37.19-.7.19h-4.64c-.33,0-.56-.06-.7-.19-.14-.13-.21-.29-.21-.5s.07-.36.21-.49c.14-.13.37-.19.7-.19h1.64v-3.31h-1.1c-.32,0-.56-.06-.7-.19s-.21-.29-.21-.5.07-.36.21-.49c.14-.12.37-.19.7-.19h2.46ZM445.21,77.2v1.45h-1.62v-1.45h1.62Z"/>
      <path class="cls-3" d="M454.41,80.2v-.41h1.6c.33,0,.56.06.7.19.14.13.21.29.21.5s-.07.36-.21.49c-.14.13-.37.19-.7.19h-.23v4.97c0,.48-.1.9-.3,1.25-.2.36-.51.67-.93.92-.42.26-.89.39-1.41.39h-1.54c-.33,0-.56-.06-.7-.19-.14-.13-.21-.29-.21-.49s.07-.37.21-.49c.14-.13.37-.19.7-.19h1.5c.42,0,.74-.11.97-.34.23-.23.35-.51.35-.86v-.67c-.3.2-.61.34-.92.44-.31.1-.63.15-.96.15-.93,0-1.7-.31-2.33-.93-.63-.62-.94-1.38-.94-2.29s.31-1.68.94-2.3c.63-.62,1.4-.93,2.33-.93.35,0,.68.05.99.15s.61.25.9.46ZM454.4,82.82c0-.5-.19-.94-.56-1.3-.37-.37-.82-.55-1.33-.55s-.96.18-1.33.55c-.37.37-.56.8-.56,1.3s.19.94.56,1.31c.37.37.82.55,1.33.55s.96-.18,1.33-.55c.37-.37.56-.8.56-1.31Z"/>
      <path class="cls-3" d="M459.71,79.79v.46c.25-.21.52-.37.82-.48.3-.11.62-.16.97-.16.81,0,1.45.25,1.92.75.37.4.56.92.56,1.57v2.54c.29,0,.5.06.64.19.14.12.21.29.21.5s-.07.36-.21.49-.37.19-.7.19h-1.23c-.33,0-.56-.06-.7-.19s-.21-.29-.21-.5.07-.36.21-.49c.14-.13.35-.19.64-.19v-2.58c0-.3-.08-.51-.24-.65-.21-.18-.52-.27-.94-.27-.32,0-.59.06-.83.18-.24.12-.54.38-.9.78v2.54c.35,0,.58.04.68.1.22.13.33.33.33.59,0,.2-.07.36-.21.49s-.37.19-.7.19h-1.55c-.33,0-.56-.06-.7-.19-.14-.13-.21-.29-.21-.5,0-.25.11-.44.32-.58.11-.07.33-.1.69-.1v-3.31c-.29,0-.5-.06-.64-.19-.14-.13-.21-.29-.21-.49s.07-.36.21-.49c.14-.12.37-.19.7-.19h1.3Z"/>
      <path class="cls-3" d="M441.31,99v2.28c0,.33-.06.56-.19.7-.12.14-.29.21-.49.21s-.37-.07-.5-.21c-.13-.14-.19-.38-.19-.7v-2.28h-1.95c-.33,0-.56-.06-.7-.19-.14-.13-.21-.29-.21-.5s.07-.37.21-.5c.14-.13.37-.19.7-.18h1.95v-2.28c0-.32.06-.56.19-.7.13-.14.29-.21.5-.21s.37.07.5.21.19.37.19.7v2.28s1.94,0,1.94,0c.33,0,.56.06.7.19.14.12.21.29.21.49s-.07.37-.21.5-.37.19-.7.19h-1.95Z"/>
      <path class="cls-3" d="M430.5,110.84c.08-.12.18-.2.28-.26.1-.06.21-.09.32-.09.2,0,.36.07.49.21.13.14.19.37.19.7v1.16c0,.33-.06.56-.19.7-.13.14-.29.21-.49.21-.18,0-.33-.05-.44-.15s-.19-.29-.25-.57c-.03-.19-.09-.33-.19-.43-.18-.2-.44-.36-.76-.48-.33-.12-.65-.18-.98-.18-.41,0-.78.09-1.13.27s-.64.47-.91.87c-.26.4-.39.88-.39,1.43v.88c0,.66.24,1.21.72,1.64s1.14.66,1.99.66c.51,0,.93-.07,1.29-.21.2-.08.42-.24.65-.47.14-.14.25-.23.33-.28.08-.04.17-.06.27-.06.18,0,.34.07.48.21.14.14.21.3.21.49s-.09.39-.28.6c-.27.31-.62.55-1.04.73-.57.24-1.21.36-1.9.36-.81,0-1.54-.17-2.18-.5-.52-.27-.97-.69-1.34-1.26-.37-.57-.55-1.2-.55-1.88v-.93c0-.71.17-1.37.5-1.99.33-.61.79-1.09,1.38-1.42.59-.33,1.21-.5,1.86-.5.4,0,.76.04,1.11.14.34.09.66.23.96.42Z"/>
      <path class="cls-3" d="M440.09,115.65c0,.52-.15,1.03-.44,1.52-.29.49-.72.88-1.3,1.17s-1.18.44-1.8.44-1.22-.14-1.78-.43c-.57-.29-1-.68-1.3-1.17s-.45-1.01-.45-1.54.15-1.08.45-1.61c.3-.53.74-.94,1.3-1.24.57-.3,1.16-.45,1.77-.45s1.22.15,1.79.46,1.01.72,1.3,1.24.44,1.06.44,1.61ZM438.72,115.66c0-.44-.16-.84-.47-1.21-.43-.5-1-.75-1.7-.75-.62,0-1.13.2-1.54.59-.41.39-.62.85-.62,1.37,0,.43.21.82.63,1.2.42.37.93.55,1.54.55s1.13-.18,1.54-.55c.42-.37.63-.77.63-1.2Z"/>
      <path class="cls-3" d="M443.03,117.81v2.24h.82c.33,0,.56.06.7.19s.21.29.21.5-.07.36-.21.49c-.14.13-.37.19-.7.19h-2.42c-.33,0-.56-.06-.7-.19-.14-.12-.21-.29-.21-.49s.07-.37.21-.5c.14-.13.38-.19.7-.19h.23v-6.16h-.23c-.33,0-.56-.06-.7-.19-.14-.12-.21-.29-.21-.5s.07-.36.21-.49c.14-.13.37-.19.7-.19h1.6v.46c.32-.22.65-.38.99-.48.34-.11.69-.16,1.05-.16.93,0,1.73.32,2.38.95.66.63.99,1.36.99,2.17,0,.9-.39,1.64-1.17,2.23-.65.49-1.38.73-2.19.73-.35,0-.7-.05-1.04-.15s-.68-.26-1.02-.46ZM447.08,115.46c0-.19-.08-.43-.23-.73-.15-.3-.38-.54-.7-.74s-.68-.3-1.1-.3c-.68,0-1.22.26-1.62.77-.27.35-.41.69-.41,1.01,0,.36.19.72.58,1.06.39.34.87.52,1.44.52s1.06-.17,1.44-.51.58-.7.58-1.08Z"/>
      <path class="cls-3" d="M452.14,118.51l-2.36-4.63c-.22-.03-.39-.1-.51-.23-.12-.12-.17-.28-.17-.45,0-.21.07-.37.21-.5.14-.13.37-.19.7-.19h1.25c.33,0,.56.06.7.19.14.13.21.29.21.5s-.07.36-.21.49c-.14.13-.36.19-.66.19l1.61,3.13,1.6-3.13c-.29,0-.51-.06-.65-.19-.14-.12-.21-.29-.21-.5s.07-.36.21-.49.37-.19.7-.19h1.29c.32,0,.56.06.7.19.14.13.21.29.21.5,0,.18-.06.34-.18.46-.12.12-.3.2-.53.22l-3.13,6.16c.34,0,.57.03.67.1.21.14.32.33.32.59,0,.2-.07.36-.21.49-.14.13-.37.19-.7.19h-2.98c-.33,0-.56-.06-.7-.19-.14-.12-.21-.29-.21-.49s.07-.37.21-.5c.14-.13.37-.19.7-.19h1.36l.77-1.53Z"/>
    </g>
    <polyline class="cls-4" points="182.35 239.52 788.11 239.52 858.01 168.58"/>
    <g>
      <path class="cls-1" d="M172.62,229.61c.08-.12.18-.2.28-.26.1-.06.21-.09.32-.09.2,0,.36.07.49.21s.19.37.19.7v1.16c0,.33-.06.56-.19.7s-.29.21-.49.21c-.18,0-.33-.05-.44-.15-.11-.1-.19-.29-.25-.57-.03-.19-.09-.33-.19-.43-.18-.2-.44-.36-.76-.48s-.65-.18-.98-.18c-.41,0-.78.09-1.13.27-.34.18-.64.47-.91.87s-.39.87-.39,1.42v.88c0,.66.24,1.21.72,1.64s1.14.66,1.99.66c.51,0,.93-.07,1.29-.21.2-.08.42-.24.65-.47.14-.14.25-.23.33-.28.08-.04.17-.06.27-.06.18,0,.34.07.48.21s.21.3.21.49-.09.39-.28.6c-.27.31-.62.56-1.04.73-.57.24-1.21.36-1.9.36-.81,0-1.54-.17-2.18-.5-.52-.27-.97-.69-1.34-1.26-.37-.57-.55-1.2-.55-1.88v-.93c0-.71.17-1.37.5-1.99.33-.61.79-1.09,1.38-1.42.59-.33,1.21-.5,1.86-.5.4,0,.76.05,1.11.14.34.09.66.23.96.42Z"/>
      <path class="cls-1" d="M182.21,234.43c0,.52-.15,1.03-.44,1.52-.29.49-.72.88-1.3,1.17-.57.29-1.18.44-1.8.44s-1.22-.14-1.78-.43c-.57-.29-1-.68-1.3-1.17-.3-.49-.45-1.01-.45-1.54s.15-1.08.45-1.61c.3-.53.74-.94,1.3-1.24.57-.3,1.16-.45,1.77-.45s1.22.15,1.79.46,1.01.72,1.3,1.25.44,1.06.44,1.61ZM180.84,234.43c0-.44-.16-.84-.47-1.21-.43-.5-1-.75-1.7-.75-.62,0-1.13.2-1.54.59-.41.4-.62.85-.62,1.37,0,.43.21.82.63,1.19.42.37.93.56,1.54.56s1.13-.18,1.54-.56c.42-.37.63-.77.63-1.2Z"/>
      <path class="cls-1" d="M185.46,231.29v.46c.25-.21.52-.37.82-.48.3-.11.62-.16.98-.16.81,0,1.45.25,1.92.75.37.4.56.92.56,1.57v2.54c.29,0,.5.06.64.19.14.13.21.29.21.5s-.07.36-.21.49c-.14.13-.37.19-.7.19h-1.23c-.33,0-.56-.06-.7-.19-.14-.13-.21-.29-.21-.5s.07-.36.21-.49c.14-.13.35-.19.64-.19v-2.58c0-.3-.08-.51-.24-.65-.21-.18-.52-.27-.94-.27-.31,0-.59.06-.83.18-.24.12-.54.38-.9.78v2.54c.35,0,.58.03.68.1.22.13.33.33.33.59,0,.2-.07.36-.21.49-.14.13-.37.19-.7.19h-1.55c-.33,0-.56-.06-.7-.19-.14-.13-.21-.29-.21-.5,0-.25.11-.44.32-.58.11-.07.33-.1.69-.1v-3.31c-.29,0-.5-.06-.64-.19s-.21-.29-.21-.49.07-.36.21-.49c.14-.13.37-.19.7-.19h1.3Z"/>
      <path class="cls-1" d="M194.69,232.66v2.74c0,.29.06.49.18.58.19.15.52.22,1,.22.7,0,1.34-.15,1.93-.45.23-.12.4-.17.53-.17.18,0,.33.07.46.2s.2.29.2.49c0,.18-.07.33-.21.46-.22.21-.65.4-1.29.58-.64.17-1.18.26-1.62.26-.85,0-1.48-.18-1.91-.55-.42-.37-.64-.82-.64-1.35v-3h-.49c-.33,0-.56-.06-.7-.19-.14-.13-.21-.29-.21-.5s.07-.36.21-.49c.14-.13.37-.19.7-.19h.49v-1.23c0-.33.06-.56.19-.7.13-.14.29-.21.5-.21s.36.07.49.21c.13.14.19.37.19.7v1.23h2.52c.33,0,.56.06.7.19.14.13.21.29.21.5s-.07.36-.21.49c-.14.13-.37.19-.7.19h-2.52Z"/>
      <path class="cls-1" d="M206.63,235h-5.6c.14.36.39.64.76.86.36.22.85.33,1.47.33.51,0,1.18-.11,2.02-.33.35-.09.59-.13.72-.13.18,0,.34.06.46.19s.19.29.19.49c0,.18-.07.33-.2.45-.18.16-.61.32-1.3.47-.69.15-1.35.22-1.98.22-1.09,0-1.96-.31-2.62-.93-.65-.62-.98-1.38-.98-2.28,0-.96.35-1.74,1.06-2.34.71-.6,1.52-.9,2.45-.9.55,0,1.06.1,1.53.29s.81.41,1.04.63c.32.33.58.73.79,1.22.14.34.21.73.21,1.17v.58ZM205.12,233.64c-.21-.39-.48-.68-.82-.88s-.74-.29-1.21-.29-.86.1-1.2.29-.61.49-.83.88h4.05Z"/>
      <path class="cls-1" d="M210.01,231.29v.46c.25-.21.52-.37.82-.48.3-.11.62-.16.98-.16.81,0,1.45.25,1.92.75.37.4.56.92.56,1.57v2.54c.29,0,.5.06.64.19.14.13.21.29.21.5s-.07.36-.21.49c-.14.13-.37.19-.7.19h-1.23c-.33,0-.56-.06-.7-.19-.14-.13-.21-.29-.21-.5s.07-.36.21-.49c.14-.13.35-.19.64-.19v-2.58c0-.3-.08-.51-.24-.65-.21-.18-.52-.27-.94-.27-.31,0-.59.06-.83.18-.24.12-.54.38-.9.78v2.54c.35,0,.58.03.68.1.22.13.33.33.33.59,0,.2-.07.36-.21.49-.14.13-.37.19-.7.19h-1.55c-.33,0-.56-.06-.7-.19-.14-.13-.21-.29-.21-.5,0-.25.11-.44.32-.58.11-.07.33-.1.69-.1v-3.31c-.29,0-.5-.06-.64-.19s-.21-.29-.21-.49.07-.36.21-.49c.14-.13.37-.19.7-.19h1.3Z"/>
      <path class="cls-1" d="M219.23,232.66v2.74c0,.29.06.49.18.58.19.15.52.22,1,.22.7,0,1.34-.15,1.93-.45.23-.12.4-.17.53-.17.18,0,.33.07.46.2s.2.29.2.49c0,.18-.07.33-.21.46-.22.21-.65.4-1.29.58-.64.17-1.18.26-1.62.26-.85,0-1.48-.18-1.91-.55-.42-.37-.64-.82-.64-1.35v-3h-.49c-.33,0-.56-.06-.7-.19-.14-.13-.21-.29-.21-.5s.07-.36.21-.49c.14-.13.37-.19.7-.19h.49v-1.23c0-.33.06-.56.19-.7.13-.14.29-.21.5-.21s.36.07.49.21c.13.14.19.37.19.7v1.23h2.52c.33,0,.56.06.7.19.14.13.21.29.21.5s-.07.36-.21.49c-.14.13-.37.19-.7.19h-2.52Z"/>
      <path class="cls-1" d="M151.06,252.33v-5.34c-.29,0-.5-.07-.64-.2s-.21-.29-.21-.49.07-.37.21-.5c.14-.13.37-.19.7-.19h2.86c.44,0,.88.09,1.3.25s.76.37,1.02.63c.2.19.4.45.61.79.21.33.37.66.48.99s.16.73.16,1.21v.65c0,.58-.1,1.09-.29,1.53-.2.45-.45.81-.77,1.09-.32.28-.62.49-.9.62-.44.21-1.02.31-1.72.31h-2.74c-.33,0-.56-.06-.7-.19-.14-.13-.21-.29-.21-.5s.07-.36.21-.49c.14-.13.35-.19.64-.19ZM152.43,252.33h1.45c.54,0,.95-.08,1.23-.23.36-.2.63-.46.81-.78.18-.31.27-.72.27-1.22v-.65c0-.43-.08-.81-.25-1.13-.26-.51-.55-.85-.87-1.04s-.72-.28-1.21-.28h-1.44v5.34Z"/>
      <path class="cls-1" d="M165.72,251.37h-5.6c.14.36.39.64.76.86.36.22.85.33,1.47.33.51,0,1.18-.11,2.02-.33.35-.09.59-.13.72-.13.18,0,.34.06.46.19s.19.29.19.49c0,.18-.07.33-.2.45-.18.16-.61.32-1.3.47-.69.15-1.35.22-1.98.22-1.09,0-1.96-.31-2.62-.93-.65-.62-.98-1.38-.98-2.28,0-.96.35-1.74,1.06-2.34.71-.6,1.52-.9,2.45-.9.55,0,1.06.1,1.53.29s.81.41,1.04.63c.32.33.58.73.79,1.22.14.34.21.73.21,1.17v.58ZM164.21,250c-.21-.39-.48-.68-.82-.88s-.74-.29-1.21-.29-.86.1-1.2.29-.61.49-.83.88h4.05Z"/>
      <path class="cls-1" d="M170.49,252.04l1.47-3.02c-.36,0-.6-.03-.7-.09-.22-.14-.33-.33-.33-.59,0-.2.07-.36.21-.49.14-.13.37-.19.7-.19h1.87c.33,0,.56.06.7.19.14.13.21.29.21.5s-.07.36-.21.49c-.14.13-.37.19-.7.19h-.23l-2.28,4.68h-1.42l-2.28-4.68h-.19c-.33,0-.56-.06-.7-.19-.14-.13-.21-.29-.21-.5s.07-.36.21-.49c.14-.13.37-.19.7-.19h1.83c.32,0,.56.06.7.19.14.13.21.29.21.5,0,.25-.11.45-.32.58-.11.07-.34.1-.71.1l1.48,3.02Z"/>
      <path class="cls-1" d="M182.09,251.37h-5.6c.14.36.39.64.76.86.36.22.85.33,1.47.33.51,0,1.18-.11,2.02-.33.35-.09.59-.13.72-.13.18,0,.34.06.46.19s.19.29.19.49c0,.18-.07.33-.2.45-.18.16-.61.32-1.3.47-.69.15-1.35.22-1.98.22-1.09,0-1.96-.31-2.62-.93-.65-.62-.98-1.38-.98-2.28,0-.96.35-1.74,1.06-2.34.71-.6,1.52-.9,2.45-.9.55,0,1.06.1,1.53.29s.81.41,1.04.63c.32.33.58.73.79,1.22.14.34.21.73.21,1.17v.58ZM180.57,250c-.21-.39-.48-.68-.82-.88s-.74-.29-1.21-.29-.86.1-1.2.29-.61.49-.83.88h4.05Z"/>
      <path class="cls-1" d="M187.52,245.06v7.27h1.64c.33,0,.56.06.7.19.14.13.21.29.21.5s-.07.36-.21.49c-.14.13-.37.19-.7.19h-4.64c-.33,0-.56-.06-.7-.19-.14-.13-.21-.29-.21-.5s.07-.36.21-.49c.14-.13.37-.19.7-.19h1.64v-5.9h-1.1c-.32,0-.56-.06-.7-.19-.14-.13-.21-.29-.21-.5s.07-.36.21-.49c.14-.13.37-.19.7-.19h2.46Z"/>
      <path class="cls-1" d="M198.57,250.79c0,.52-.15,1.03-.44,1.52-.29.49-.72.88-1.3,1.17-.57.29-1.18.44-1.8.44s-1.22-.14-1.78-.43c-.57-.29-1-.68-1.3-1.17-.3-.49-.45-1.01-.45-1.54s.15-1.08.45-1.61c.3-.53.74-.94,1.3-1.24.57-.3,1.16-.45,1.77-.45s1.22.15,1.79.46,1.01.72,1.3,1.25.44,1.06.44,1.61ZM197.21,250.79c0-.44-.16-.84-.47-1.21-.43-.5-1-.75-1.7-.75-.62,0-1.13.2-1.54.59-.41.4-.62.85-.62,1.37,0,.43.21.82.63,1.19.42.37.93.56,1.54.56s1.13-.18,1.54-.56c.42-.37.63-.77.63-1.2Z"/>
      <path class="cls-1" d="M201.51,252.94v2.24h.82c.33,0,.56.06.7.19.14.13.21.29.21.5s-.07.36-.21.49c-.14.13-.37.19-.7.19h-2.42c-.33,0-.56-.06-.7-.19-.14-.13-.21-.29-.21-.49s.07-.37.21-.5c.14-.13.38-.19.7-.19h.23v-6.16h-.23c-.33,0-.56-.06-.7-.19-.14-.13-.21-.29-.21-.5s.07-.36.21-.49c.14-.13.37-.19.7-.19h1.6v.47c.32-.22.65-.38.99-.49.34-.11.69-.16,1.05-.16.93,0,1.73.32,2.38.95.66.63.99,1.36.99,2.17,0,.9-.39,1.64-1.17,2.23-.65.49-1.38.73-2.19.73-.35,0-.7-.05-1.04-.15-.34-.1-.68-.25-1.02-.46ZM205.56,250.6c0-.19-.08-.43-.23-.73-.15-.3-.38-.54-.7-.74s-.68-.3-1.1-.3c-.68,0-1.22.26-1.62.77-.27.35-.41.69-.41,1.01,0,.36.19.72.58,1.06.39.34.87.52,1.44.52s1.06-.17,1.44-.51.58-.7.58-1.08Z"/>
      <path class="cls-1" d="M209.28,247.65v.39c.22-.22.42-.37.6-.45s.39-.12.62-.12c.2,0,.4.05.59.15s.39.24.57.44c.23-.2.47-.34.72-.44.24-.09.49-.14.74-.14.51,0,.92.14,1.23.41.42.35.63.82.63,1.4v3.06c.28,0,.49.06.63.19s.21.29.21.49-.07.36-.21.49c-.14.13-.37.19-.7.19h-1.3v-4.31c0-.21-.04-.35-.11-.43-.08-.08-.19-.12-.35-.12s-.29.04-.42.12c-.16.11-.36.32-.6.63v2.75c.28,0,.49.06.63.19s.21.29.21.49-.07.36-.21.49c-.14.13-.37.19-.7.19h-1.3v-4.31c0-.2-.04-.35-.12-.43s-.19-.12-.35-.12-.32.05-.47.15-.34.3-.56.6v2.75c.28,0,.5.06.64.19s.21.29.21.49-.07.36-.21.49c-.14.13-.37.19-.7.19h-1.23c-.33,0-.56-.06-.7-.19-.14-.13-.21-.29-.21-.5s.07-.36.21-.49c.14-.13.35-.19.64-.19v-3.31c-.29,0-.5-.06-.64-.19s-.21-.29-.21-.49.07-.36.21-.49c.14-.13.37-.19.7-.19h1.3Z"/>
      <path class="cls-1" d="M223,251.37h-5.6c.14.36.39.64.76.86.36.22.85.33,1.47.33.51,0,1.18-.11,2.02-.33.35-.09.59-.13.72-.13.18,0,.34.06.46.19s.19.29.19.49c0,.18-.07.33-.2.45-.18.16-.61.32-1.3.47-.69.15-1.35.22-1.98.22-1.09,0-1.96-.31-2.62-.93-.65-.62-.98-1.38-.98-2.28,0-.96.35-1.74,1.06-2.34.71-.6,1.52-.9,2.45-.9.55,0,1.06.1,1.53.29s.81.41,1.04.63c.32.33.58.73.79,1.22.14.34.21.73.21,1.17v.58ZM221.48,250c-.21-.39-.48-.68-.82-.88s-.74-.29-1.21-.29-.86.1-1.2.29-.61.49-.83.88h4.05Z"/>
      <path class="cls-1" d="M226.37,247.65v.46c.25-.21.52-.37.82-.48.3-.11.62-.16.98-.16.81,0,1.45.25,1.92.75.37.4.56.92.56,1.57v2.54c.29,0,.5.06.64.19.14.13.21.29.21.5s-.07.36-.21.49c-.14.13-.37.19-.7.19h-1.23c-.33,0-.56-.06-.7-.19-.14-.13-.21-.29-.21-.5s.07-.36.21-.49c.14-.13.35-.19.64-.19v-2.58c0-.3-.08-.51-.24-.65-.21-.18-.52-.27-.94-.27-.31,0-.59.06-.83.18-.24.12-.54.38-.9.78v2.54c.35,0,.58.03.68.1.22.13.33.33.33.59,0,.2-.07.36-.21.49-.14.13-.37.19-.7.19h-1.55c-.33,0-.56-.06-.7-.19-.14-.13-.21-.29-.21-.5,0-.25.11-.44.32-.58.11-.07.33-.1.69-.1v-3.31c-.29,0-.5-.06-.64-.19s-.21-.29-.21-.49.07-.36.21-.49c.14-.13.37-.19.7-.19h1.3Z"/>
      <path class="cls-1" d="M235.6,249.02v2.74c0,.29.06.49.18.58.19.15.52.22,1,.22.7,0,1.34-.15,1.93-.45.23-.12.4-.17.53-.17.18,0,.33.07.46.2s.2.29.2.49c0,.18-.07.33-.21.46-.22.21-.65.4-1.29.58-.64.17-1.18.26-1.62.26-.85,0-1.48-.18-1.91-.55-.42-.37-.64-.82-.64-1.35v-3h-.49c-.33,0-.56-.06-.7-.19-.14-.13-.21-.29-.21-.5s.07-.36.21-.49c.14-.13.37-.19.7-.19h.49v-1.23c0-.33.06-.56.19-.7.13-.14.29-.21.5-.21s.36.07.49.21c.13.14.19.37.19.7v1.23h2.52c.33,0,.56.06.7.19.14.13.21.29.21.5s-.07.36-.21.49c-.14.13-.37.19-.7.19h-2.52Z"/>
    </g>
    <g>
      <path class="cls-1" d="M331.44,229.15c.08-.12.18-.2.28-.26.1-.06.21-.09.32-.09.2,0,.36.07.49.21.13.14.19.37.19.7v1.16c0,.33-.06.56-.19.7-.13.14-.29.21-.49.21-.18,0-.33-.05-.44-.15-.11-.1-.19-.29-.25-.57-.03-.19-.09-.33-.19-.43-.18-.2-.44-.36-.76-.48s-.65-.18-.98-.18c-.41,0-.78.09-1.12.27-.34.18-.64.47-.91.87s-.39.87-.39,1.42v.88c0,.66.24,1.21.71,1.64.48.44,1.14.66,1.99.66.51,0,.93-.07,1.29-.21.2-.08.42-.24.65-.47.14-.14.25-.23.33-.28s.17-.06.27-.06c.18,0,.34.07.48.21s.21.3.21.49-.09.39-.28.6c-.27.31-.62.56-1.04.73-.57.24-1.21.36-1.9.36-.81,0-1.54-.17-2.18-.5-.52-.27-.97-.69-1.34-1.26-.37-.57-.55-1.2-.55-1.88v-.93c0-.71.17-1.37.5-1.99.33-.61.79-1.09,1.38-1.42.59-.33,1.21-.5,1.86-.5.4,0,.76.05,1.11.14.34.09.66.23.96.42Z"/>
      <path class="cls-1" d="M338.71,236.87v-.32c-.34.18-.72.32-1.13.41-.41.09-.79.14-1.12.14-.73,0-1.33-.19-1.78-.58-.46-.39-.69-.82-.69-1.29,0-.57.29-1.1.88-1.59.58-.49,1.39-.74,2.42-.74.41,0,.89.04,1.43.13v-.33c0-.2-.09-.37-.26-.5-.18-.13-.51-.19-1-.19-.4,0-.93.08-1.57.24-.24.06-.43.09-.56.09-.18,0-.34-.07-.46-.2-.13-.13-.19-.3-.19-.5,0-.12.02-.22.07-.3.04-.08.11-.15.19-.2.08-.05.25-.11.5-.18.34-.09.68-.17,1.03-.22s.67-.08.95-.08c.85,0,1.51.18,1.97.55.47.37.7.87.7,1.5v2.81h.23c.33,0,.56.06.7.19.14.13.21.29.21.5s-.07.36-.21.49c-.14.13-.37.19-.7.19h-1.6ZM338.71,234.43c-.55-.11-1.05-.16-1.51-.16-.55,0-1.03.14-1.43.41-.25.17-.37.35-.37.53,0,.13.06.23.18.31.22.15.53.22.91.22.33,0,.7-.06,1.12-.19.42-.13.78-.3,1.11-.53v-.59Z"/>
      <path class="cls-1" d="M345.38,230.83v.85c.57-.41,1.02-.69,1.35-.83.33-.14.64-.21.93-.21.44,0,.88.16,1.29.49.28.22.43.45.43.68,0,.2-.07.36-.2.5s-.3.2-.49.2c-.17,0-.35-.08-.53-.25-.19-.17-.35-.25-.5-.25-.19,0-.48.12-.86.36-.38.24-.85.6-1.42,1.08v2.06h1.94c.33,0,.56.06.7.19.14.13.21.29.21.5s-.07.36-.21.49c-.14.13-.37.19-.7.19h-4.12c-.33,0-.56-.06-.7-.19-.14-.13-.21-.29-.21-.5s.07-.36.21-.49c.14-.13.37-.19.7-.19h.81v-3.31h-.49c-.33,0-.56-.06-.7-.19-.14-.13-.21-.29-.21-.5s.07-.36.21-.49c.14-.13.37-.19.7-.19h1.86Z"/>
      <path class="cls-1" d="M356.98,228.24v7.27h.23c.32,0,.56.06.7.19.14.13.21.29.21.5s-.07.36-.21.49c-.14.13-.37.19-.7.19h-1.6v-.33c-.31.18-.64.32-.97.41-.34.09-.69.14-1.06.14-1.03,0-1.85-.3-2.48-.89s-.94-1.33-.94-2.21.33-1.71.99-2.36c.66-.65,1.46-.98,2.4-.98.35,0,.7.05,1.04.16s.68.27,1.01.49v-1.7h-.23c-.33,0-.56-.06-.7-.19-.14-.13-.21-.29-.21-.49s.07-.37.21-.5c.14-.13.37-.19.7-.19h1.6ZM355.62,234.03c0-.56-.2-1.04-.59-1.43-.4-.39-.88-.59-1.45-.59s-1.05.2-1.44.59c-.39.39-.59.86-.59,1.41,0,.5.18.91.53,1.23.35.32.86.48,1.5.48s1.15-.16,1.5-.48c.36-.32.54-.73.54-1.21Z"/>
      <path class="cls-1" d="M372.35,229.15c.08-.12.18-.2.28-.26s.21-.09.32-.09c.2,0,.36.07.49.21.13.14.19.37.19.7v1.16c0,.33-.06.56-.19.7-.13.14-.29.21-.49.21-.18,0-.33-.05-.44-.15-.11-.1-.19-.29-.25-.57-.03-.19-.09-.33-.19-.43-.18-.2-.44-.36-.76-.48s-.65-.18-.98-.18c-.41,0-.78.09-1.13.27-.34.18-.64.47-.91.87s-.39.87-.39,1.42v.88c0,.66.24,1.21.72,1.64.48.44,1.14.66,1.99.66.51,0,.93-.07,1.29-.21.2-.08.42-.24.65-.47.14-.14.25-.23.33-.28.08-.04.17-.06.27-.06.18,0,.34.07.48.21s.21.3.21.49-.09.39-.28.6c-.27.31-.62.56-1.04.73-.57.24-1.21.36-1.9.36-.81,0-1.54-.17-2.18-.5-.52-.27-.97-.69-1.34-1.26-.37-.57-.55-1.2-.55-1.88v-.93c0-.71.17-1.37.5-1.99.33-.61.79-1.09,1.38-1.42.59-.33,1.21-.5,1.86-.5.39,0,.76.05,1.11.14s.67.23.96.42Z"/>
      <path class="cls-1" d="M381.94,233.96c0,.52-.15,1.03-.44,1.52-.29.49-.72.88-1.3,1.17-.57.29-1.17.44-1.8.44s-1.22-.14-1.78-.43-1-.68-1.3-1.17c-.3-.49-.45-1.01-.45-1.54s.15-1.08.45-1.61c.3-.53.74-.94,1.3-1.24.57-.3,1.16-.45,1.77-.45s1.22.15,1.79.46c.58.31,1.01.72,1.3,1.25s.44,1.06.44,1.61ZM380.58,233.97c0-.44-.16-.84-.47-1.21-.43-.5-1-.75-1.7-.75-.62,0-1.13.2-1.54.59-.41.4-.62.85-.62,1.37,0,.43.21.82.62,1.19.42.37.93.56,1.54.56s1.13-.18,1.54-.56c.42-.37.63-.77.63-1.2Z"/>
      <path class="cls-1" d="M384.88,236.12v2.24h.82c.33,0,.56.06.7.19.14.13.21.29.21.5s-.07.36-.21.49c-.14.13-.37.19-.7.19h-2.42c-.33,0-.56-.06-.7-.19-.14-.13-.21-.29-.21-.49s.07-.37.21-.5c.14-.13.38-.19.7-.19h.23v-6.16h-.23c-.33,0-.56-.06-.7-.19-.14-.13-.21-.29-.21-.5s.07-.36.21-.49c.14-.13.37-.19.7-.19h1.6v.47c.32-.22.65-.38.99-.49.34-.11.69-.16,1.05-.16.93,0,1.73.32,2.38.95.66.63.99,1.36.99,2.17,0,.9-.39,1.64-1.17,2.23-.65.49-1.38.73-2.19.73-.35,0-.7-.05-1.04-.15-.34-.1-.68-.25-1.02-.46ZM388.93,233.78c0-.19-.08-.43-.23-.73-.15-.3-.38-.54-.7-.74-.31-.2-.68-.3-1.1-.3-.68,0-1.22.26-1.62.77-.27.35-.41.69-.41,1.01,0,.36.19.72.58,1.06s.87.52,1.44.52,1.06-.17,1.44-.51c.39-.34.58-.7.58-1.08Z"/>
      <path class="cls-1" d="M394,236.83l-2.36-4.63c-.22-.03-.39-.1-.51-.23s-.17-.28-.17-.45c0-.2.07-.37.21-.5.14-.13.37-.19.7-.19h1.25c.33,0,.56.06.7.19.14.13.21.29.21.5s-.07.36-.21.49c-.14.13-.36.19-.66.19l1.61,3.13,1.6-3.13c-.29,0-.51-.06-.65-.19-.14-.13-.21-.29-.21-.5s.07-.36.21-.49c.14-.13.37-.19.7-.19h1.29c.32,0,.56.06.7.19.14.13.21.29.21.5,0,.18-.06.34-.18.46-.12.13-.3.2-.53.22l-3.13,6.16c.34,0,.57.03.67.1.21.14.32.33.32.59,0,.2-.07.36-.21.49-.14.13-.37.19-.7.19h-2.98c-.33,0-.56-.06-.7-.19-.14-.13-.21-.29-.21-.49s.07-.37.21-.5c.14-.13.37-.19.7-.19h1.36l.77-1.53Z"/>
      <path class="cls-1" d="M318.07,251.87v-5.34c-.29,0-.5-.07-.64-.2s-.21-.29-.21-.49.07-.37.21-.5c.14-.13.37-.19.7-.19h2.86c.44,0,.88.09,1.3.25s.76.37,1.02.63c.2.19.4.45.61.79.21.33.37.66.48.99s.16.73.16,1.21v.65c0,.58-.1,1.09-.29,1.53-.2.45-.45.81-.77,1.09-.32.28-.62.49-.9.62-.44.21-1.02.31-1.72.31h-2.74c-.33,0-.56-.06-.7-.19-.14-.13-.21-.29-.21-.5s.07-.36.21-.49c.14-.13.35-.19.64-.19ZM319.43,251.87h1.45c.54,0,.95-.08,1.23-.23.36-.2.63-.46.81-.78.18-.31.27-.72.27-1.22v-.65c0-.43-.08-.81-.25-1.13-.26-.51-.55-.85-.87-1.04-.32-.19-.72-.28-1.21-.28h-1.44v5.34Z"/>
      <path class="cls-1" d="M330,244.4v7.47h1.38c.33,0,.56.06.7.19.14.13.21.29.21.5s-.07.36-.21.49c-.14.13-.37.19-.7.19h-4.12c-.33,0-.56-.06-.7-.19-.14-.13-.21-.29-.21-.5s.07-.36.21-.49c.14-.13.37-.19.7-.19h1.38v-5.69l-1.22.32c-.2.05-.34.08-.44.08-.17,0-.32-.07-.45-.21-.13-.14-.19-.31-.19-.51,0-.18.05-.33.14-.43.09-.1.29-.2.59-.28l2.94-.76Z"/>
      <path class="cls-1" d="M347.81,245.51c.08-.12.18-.2.28-.26.1-.06.21-.09.32-.09.2,0,.36.07.49.21.13.14.19.37.19.7v1.16c0,.33-.06.56-.19.7-.13.14-.29.21-.49.21-.18,0-.33-.05-.44-.15-.11-.1-.19-.29-.25-.57-.03-.19-.09-.33-.19-.43-.18-.2-.44-.36-.76-.48s-.65-.18-.98-.18c-.41,0-.78.09-1.12.27-.34.18-.64.47-.91.87s-.39.87-.39,1.42v.88c0,.66.24,1.21.71,1.64.48.44,1.14.66,1.99.66.51,0,.93-.07,1.29-.21.2-.08.42-.24.65-.47.14-.14.25-.23.33-.28s.17-.06.27-.06c.18,0,.34.07.48.21s.21.3.21.49-.09.39-.28.6c-.27.31-.62.56-1.04.73-.57.24-1.21.36-1.9.36-.81,0-1.54-.17-2.18-.5-.52-.27-.97-.69-1.34-1.26-.37-.57-.55-1.2-.55-1.88v-.93c0-.71.17-1.37.5-1.99.33-.61.79-1.09,1.38-1.42.59-.33,1.21-.5,1.86-.5.4,0,.76.05,1.11.14.34.09.66.23.96.42Z"/>
      <path class="cls-1" d="M357.39,250.33c0,.52-.15,1.03-.44,1.52-.29.49-.72.88-1.3,1.17-.58.29-1.18.44-1.8.44s-1.22-.14-1.78-.43c-.57-.29-1-.68-1.3-1.17-.3-.49-.45-1.01-.45-1.54s.15-1.08.45-1.61c.3-.53.74-.94,1.3-1.24.57-.3,1.16-.45,1.77-.45s1.22.15,1.79.46c.57.31,1.01.72,1.3,1.25s.44,1.06.44,1.61ZM356.03,250.33c0-.44-.16-.84-.47-1.21-.43-.5-1-.75-1.7-.75-.62,0-1.13.2-1.54.59-.41.4-.62.85-.62,1.37,0,.43.21.82.63,1.19.42.37.93.56,1.54.56s1.13-.18,1.54-.56c.42-.37.63-.77.63-1.2Z"/>
      <path class="cls-1" d="M359.92,247.19v.39c.22-.22.42-.37.6-.45s.39-.12.62-.12c.2,0,.4.05.59.15s.39.24.57.44c.23-.2.47-.34.71-.44.24-.09.49-.14.74-.14.51,0,.92.14,1.23.41.42.35.63.82.63,1.4v3.06c.28,0,.49.06.63.19s.21.29.21.49-.07.36-.21.49c-.14.13-.37.19-.7.19h-1.3v-4.31c0-.21-.04-.35-.11-.43s-.19-.12-.35-.12-.29.04-.42.12c-.16.11-.36.32-.6.63v2.75c.28,0,.49.06.63.19s.21.29.21.49-.07.36-.21.49c-.14.13-.37.19-.7.19h-1.3v-4.31c0-.2-.04-.35-.12-.43-.08-.08-.19-.12-.35-.12s-.32.05-.47.15-.34.3-.56.6v2.75c.28,0,.5.06.64.19s.21.29.21.49-.07.36-.21.49c-.14.13-.37.19-.7.19h-1.23c-.33,0-.56-.06-.7-.19-.14-.13-.21-.29-.21-.5s.07-.36.21-.49c.14-.13.35-.19.64-.19v-3.31c-.29,0-.5-.06-.64-.19s-.21-.29-.21-.49.07-.36.21-.49c.14-.13.37-.19.7-.19h1.3Z"/>
      <path class="cls-1" d="M368.52,252.48v2.24h.82c.33,0,.56.06.7.19.14.13.21.29.21.5s-.07.36-.21.49c-.14.13-.37.19-.7.19h-2.42c-.33,0-.56-.06-.7-.19-.14-.13-.21-.29-.21-.49s.07-.37.21-.5c.14-.13.38-.19.7-.19h.23v-6.16h-.23c-.33,0-.56-.06-.7-.19-.14-.13-.21-.29-.21-.5s.07-.36.21-.49c.14-.13.37-.19.7-.19h1.6v.47c.32-.22.65-.38.99-.49.34-.11.69-.16,1.05-.16.93,0,1.73.32,2.38.95.66.63.99,1.36.99,2.17,0,.9-.39,1.64-1.17,2.23-.65.49-1.38.73-2.19.73-.35,0-.7-.05-1.04-.15-.34-.1-.68-.25-1.02-.46ZM372.57,250.14c0-.19-.08-.43-.23-.73-.15-.3-.38-.54-.7-.74-.31-.2-.68-.3-1.1-.3-.68,0-1.22.26-1.62.77-.27.35-.41.69-.41,1.01,0,.36.19.72.58,1.06s.87.52,1.44.52,1.06-.17,1.44-.51c.39-.34.58-.7.58-1.08Z"/>
      <path class="cls-1" d="M379.08,244.6v7.27h1.64c.33,0,.56.06.7.19.14.13.21.29.21.5s-.07.36-.21.49c-.14.13-.37.19-.7.19h-4.64c-.33,0-.56-.06-.7-.19-.14-.13-.21-.29-.21-.5s.07-.36.21-.49c.14-.13.37-.19.7-.19h1.64v-5.9h-1.1c-.32,0-.56-.06-.7-.19-.14-.13-.21-.29-.21-.5s.07-.36.21-.49c.14-.13.37-.19.7-.19h2.46Z"/>
      <path class="cls-1" d="M390,250.91h-5.6c.14.36.39.64.75.86.36.22.85.33,1.47.33.51,0,1.18-.11,2.02-.33.35-.09.59-.13.72-.13.18,0,.34.06.46.19s.19.29.19.49c0,.18-.07.33-.2.45-.18.16-.61.32-1.3.47-.69.15-1.35.22-1.98.22-1.09,0-1.96-.31-2.62-.93-.66-.62-.98-1.38-.98-2.28,0-.96.35-1.74,1.06-2.34.71-.6,1.52-.9,2.45-.9.55,0,1.06.1,1.53.29s.81.41,1.04.63c.32.33.58.73.79,1.22.14.34.21.73.21,1.17v.58ZM388.49,249.54c-.21-.39-.48-.68-.82-.88-.34-.19-.74-.29-1.21-.29s-.86.1-1.2.29c-.34.19-.61.49-.83.88h4.05Z"/>
      <path class="cls-1" d="M394.42,248.56v2.74c0,.29.06.49.18.58.19.15.52.22,1,.22.7,0,1.34-.15,1.93-.45.23-.12.4-.17.53-.17.18,0,.33.07.46.2s.2.29.2.49c0,.18-.07.33-.21.46-.22.21-.65.4-1.29.58-.64.17-1.18.26-1.62.26-.85,0-1.48-.18-1.91-.55-.42-.37-.64-.82-.64-1.35v-3h-.49c-.33,0-.56-.06-.7-.19-.14-.13-.21-.29-.21-.5s.07-.36.21-.49c.14-.13.37-.19.7-.19h.49v-1.23c0-.33.06-.56.19-.7.13-.14.29-.21.5-.21s.36.07.49.21c.13.14.19.37.19.7v1.23h2.52c.33,0,.56.06.7.19.14.13.21.29.21.5s-.07.36-.21.49c-.14.13-.37.19-.7.19h-2.52Z"/>
      <path class="cls-1" d="M406.37,250.91h-5.6c.14.36.39.64.75.86.36.22.85.33,1.47.33.51,0,1.18-.11,2.02-.33.35-.09.59-.13.72-.13.18,0,.34.06.46.19s.19.29.19.49c0,.18-.07.33-.2.45-.18.16-.61.32-1.3.47-.69.15-1.35.22-1.98.22-1.09,0-1.96-.31-2.62-.93-.66-.62-.98-1.38-.98-2.28,0-.96.35-1.74,1.06-2.34.71-.6,1.52-.9,2.45-.9.55,0,1.06.1,1.53.29s.81.41,1.04.63c.32.33.58.73.79,1.22.14.34.21.73.21,1.17v.58ZM404.85,249.54c-.21-.39-.48-.68-.82-.88-.34-.19-.74-.29-1.21-.29s-.86.1-1.2.29c-.34.19-.61.49-.83.88h4.05Z"/>
    </g>
    <g>
      <path class="cls-1" d="M507.17,225.29v1.72h.49c.33,0,.56.06.7.19.14.13.21.29.21.5s-.07.36-.21.49c-.14.13-.37.19-.7.19h-2.07c-.33,0-.56-.06-.7-.19-.14-.13-.21-.29-.21-.5s.07-.36.21-.49c.14-.13.38-.19.7-.19h.21v-5.34h-.21c-.33,0-.56-.06-.7-.19-.14-.13-.21-.29-.21-.5s.07-.37.21-.5c.14-.13.37-.19.7-.19h3.09c.96,0,1.71.25,2.24.72.53.48.79,1.06.79,1.74,0,.43-.12.81-.37,1.16-.25.35-.62.66-1.12.93.29.25.6.58.92.97.2.25.48.65.83,1.18.35,0,.57.04.69.11.2.14.3.33.3.58,0,.2-.07.36-.21.49-.14.13-.37.19-.7.19h-.78c-1.11-1.71-2.02-2.74-2.75-3.08h-1.35ZM507.17,223.93h1.07c.4,0,.75-.06,1.06-.18.42-.16.7-.33.84-.51.14-.18.22-.35.22-.53,0-.26-.14-.5-.41-.71s-.68-.33-1.21-.33h-1.56v2.26Z"/>
      <path class="cls-1" d="M520.19,226.04h-5.6c.14.36.39.64.76.86.36.22.85.33,1.47.33.51,0,1.18-.11,2.02-.33.35-.09.59-.13.72-.13.18,0,.33.06.46.19.12.13.19.29.19.49,0,.18-.07.33-.2.45-.18.16-.61.32-1.3.47-.69.15-1.35.22-1.98.22-1.09,0-1.96-.31-2.62-.93-.65-.62-.98-1.38-.98-2.28,0-.96.35-1.74,1.06-2.34s1.52-.9,2.45-.9c.55,0,1.06.1,1.53.29s.81.41,1.04.63c.32.33.58.73.79,1.22.14.34.21.73.21,1.17v.58ZM518.68,224.68c-.21-.39-.48-.68-.82-.88-.34-.19-.74-.29-1.21-.29s-.86.1-1.2.29c-.34.19-.61.49-.83.88h4.05Z"/>
      <path class="cls-1" d="M524.95,226.72l1.47-3.02c-.36,0-.6-.03-.7-.09-.22-.14-.33-.33-.33-.59,0-.2.07-.36.21-.49.14-.13.37-.19.7-.19h1.87c.33,0,.56.06.7.19.14.13.21.29.21.5s-.07.36-.21.49c-.14.13-.37.19-.7.19h-.23l-2.28,4.68h-1.42l-2.28-4.68h-.19c-.33,0-.56-.06-.7-.19-.14-.13-.21-.29-.21-.5s.07-.36.21-.49c.14-.13.37-.19.7-.19h1.83c.32,0,.56.06.7.19.14.13.21.29.21.5,0,.25-.11.45-.32.58-.11.07-.34.1-.71.1l1.48,3.02Z"/>
      <path class="cls-1" d="M533.8,222.33v4.68h1.64c.33,0,.56.06.7.19.14.13.21.29.21.5s-.07.36-.21.49c-.14.13-.37.19-.7.19h-4.64c-.33,0-.56-.06-.7-.19-.14-.13-.21-.29-.21-.5s.07-.36.21-.49c.14-.13.37-.19.7-.19h1.64v-3.31h-1.1c-.32,0-.56-.06-.7-.19-.14-.13-.21-.29-.21-.5s.07-.36.21-.49c.14-.13.37-.19.7-.19h2.46ZM533.61,219.74v1.44h-1.62v-1.44h1.62Z"/>
      <path class="cls-1" d="M544.73,226.04h-5.6c.14.36.39.64.76.86.36.22.85.33,1.47.33.51,0,1.18-.11,2.02-.33.35-.09.59-.13.72-.13.18,0,.33.06.46.19.12.13.19.29.19.49,0,.18-.07.33-.2.45-.18.16-.61.32-1.3.47-.69.15-1.35.22-1.98.22-1.09,0-1.96-.31-2.62-.93-.65-.62-.98-1.38-.98-2.28,0-.96.35-1.74,1.06-2.34s1.52-.9,2.45-.9c.55,0,1.06.1,1.53.29s.81.41,1.04.63c.32.33.58.73.79,1.22.14.34.21.73.21,1.17v.58ZM543.22,224.68c-.21-.39-.48-.68-.82-.88-.34-.19-.74-.29-1.21-.29s-.86.1-1.2.29c-.34.19-.61.49-.83.88h4.05Z"/>
      <path class="cls-1" d="M549.5,225.86l-.95,2.52h-1.28l-1.15-4.68c-.25-.01-.44-.08-.56-.21-.13-.13-.19-.29-.19-.48s.07-.36.21-.49c.14-.13.37-.19.7-.19h1.27c.33,0,.56.06.7.19.14.13.21.29.21.5s-.08.38-.24.52c-.12.11-.35.16-.71.16l.52,2.16.85-2.22h1.21l.85,2.22.53-2.16c-.34,0-.56-.03-.67-.1-.21-.14-.32-.33-.32-.59,0-.2.07-.36.21-.49.14-.13.37-.19.7-.19h1.29c.33,0,.56.06.7.19.14.13.21.29.21.5,0,.18-.06.34-.18.46-.12.13-.3.2-.54.22l-1.12,4.68h-1.26l-1-2.52Z"/>
      <path class="cls-1" d="M529.72,241.54v2.28c0,.33-.06.56-.19.7s-.29.21-.49.21-.37-.07-.5-.21c-.13-.14-.19-.37-.19-.7v-2.28h-1.95c-.33,0-.56-.06-.7-.19-.14-.13-.21-.29-.21-.5s.07-.37.21-.5c.14-.13.37-.19.7-.18h1.95v-2.28c0-.32.06-.56.19-.7.13-.14.29-.21.5-.21s.37.07.5.21c.13.14.19.37.19.7v2.28s1.94,0,1.94,0c.33,0,.56.06.7.19.14.12.21.29.21.49s-.07.37-.21.5c-.14.13-.37.19-.7.19h-1.95Z"/>
      <path class="cls-1" d="M498.99,258.01v1.72h.49c.33,0,.56.06.7.19.14.13.21.29.21.5s-.07.36-.21.49c-.14.13-.37.19-.7.19h-2.07c-.33,0-.56-.06-.7-.19-.14-.13-.21-.29-.21-.5s.07-.36.21-.49c.14-.13.38-.19.7-.19h.21v-5.34h-.21c-.33,0-.56-.06-.7-.19-.14-.13-.21-.29-.21-.5s.07-.37.21-.5c.14-.13.37-.19.7-.19h3.09c.96,0,1.71.25,2.24.72.53.48.79,1.06.79,1.74,0,.43-.12.81-.37,1.16-.25.35-.62.66-1.12.93.29.25.6.58.92.97.2.25.48.65.83,1.18.35,0,.57.04.69.11.2.14.3.33.3.58,0,.2-.07.36-.21.49-.14.13-.37.19-.7.19h-.78c-1.11-1.71-2.02-2.74-2.75-3.08h-1.35ZM498.99,256.65h1.07c.4,0,.75-.06,1.06-.18.42-.16.7-.33.84-.51.14-.18.22-.35.22-.53,0-.26-.14-.5-.41-.71s-.68-.33-1.21-.33h-1.56v2.26Z"/>
      <path class="cls-1" d="M512.01,258.77h-5.6c.14.36.39.64.76.86.36.22.85.33,1.47.33.51,0,1.18-.11,2.02-.33.35-.09.59-.13.72-.13.18,0,.33.06.46.19.12.13.19.29.19.49,0,.18-.07.33-.2.45-.18.16-.61.32-1.3.47-.69.15-1.35.22-1.98.22-1.09,0-1.96-.31-2.62-.93-.65-.62-.98-1.38-.98-2.28,0-.96.35-1.74,1.06-2.34s1.52-.9,2.45-.9c.55,0,1.06.1,1.53.29s.81.41,1.04.63c.32.33.58.73.79,1.22.14.34.21.73.21,1.17v.58ZM510.49,257.4c-.21-.39-.48-.68-.82-.88-.34-.19-.74-.29-1.21-.29s-.86.1-1.2.29c-.34.19-.61.49-.83.88h4.05Z"/>
      <path class="cls-1" d="M516.77,259.44l1.47-3.02c-.36,0-.6-.03-.7-.09-.22-.14-.33-.33-.33-.59,0-.2.07-.36.21-.49.14-.13.37-.19.7-.19h1.87c.33,0,.56.06.7.19.14.13.21.29.21.5s-.07.36-.21.49c-.14.13-.37.19-.7.19h-.23l-2.28,4.68h-1.42l-2.28-4.68h-.19c-.33,0-.56-.06-.7-.19-.14-.13-.21-.29-.21-.5s.07-.36.21-.49c.14-.13.37-.19.7-.19h1.83c.32,0,.56.06.7.19.14.13.21.29.21.5,0,.25-.11.45-.32.58-.11.07-.34.1-.71.1l1.48,3.02Z"/>
      <path class="cls-1" d="M525.62,255.05v4.68h1.64c.33,0,.56.06.7.19.14.13.21.29.21.5s-.07.36-.21.49c-.14.13-.37.19-.7.19h-4.64c-.33,0-.56-.06-.7-.19-.14-.13-.21-.29-.21-.5s.07-.36.21-.49c.14-.13.37-.19.7-.19h1.64v-3.31h-1.1c-.32,0-.56-.06-.7-.19-.14-.13-.21-.29-.21-.5s.07-.36.21-.49c.14-.13.37-.19.7-.19h2.46ZM525.43,252.46v1.44h-1.62v-1.44h1.62Z"/>
      <path class="cls-1" d="M534.6,256.65c-.22-.14-.46-.24-.7-.31-.24-.07-.5-.1-.77-.1-.53,0-.95.09-1.26.26-.14.08-.21.16-.21.25,0,.1.09.2.28.3.14.07.46.14.95.21.91.12,1.54.25,1.89.37.47.17.83.41,1.08.73.25.32.38.67.38,1.03,0,.49-.22.9-.65,1.23-.62.47-1.42.71-2.4.71-.4,0-.76-.03-1.1-.1-.33-.07-.64-.17-.92-.3-.07.06-.14.1-.21.13-.08.03-.15.05-.23.05-.21,0-.38-.07-.51-.21-.13-.14-.19-.37-.19-.7v-.46c0-.33.06-.56.19-.7.13-.14.29-.21.5-.21.16,0,.3.05.41.14.11.09.2.25.26.47.21.18.46.31.75.4s.63.14,1.01.14c.62,0,1.11-.1,1.46-.29.16-.1.25-.2.25-.31,0-.18-.12-.32-.35-.44-.24-.12-.72-.21-1.46-.29-1.1-.12-1.83-.34-2.2-.67-.37-.32-.55-.72-.55-1.2s.21-.89.62-1.22c.56-.44,1.29-.67,2.2-.67.31,0,.62.03.91.09.29.06.57.15.84.28.08-.06.16-.11.24-.14s.14-.05.2-.05c.19,0,.34.07.47.21s.19.37.19.7v.33c0,.3-.04.5-.11.61-.14.2-.33.31-.58.31-.16,0-.31-.05-.43-.15-.12-.1-.21-.24-.24-.41Z"/>
      <path class="cls-1" d="M541.98,255.05v4.68h1.64c.33,0,.56.06.7.19.14.13.21.29.21.5s-.07.36-.21.49c-.14.13-.37.19-.7.19h-4.64c-.33,0-.56-.06-.7-.19-.14-.13-.21-.29-.21-.5s.07-.36.21-.49c.14-.13.37-.19.7-.19h1.64v-3.31h-1.1c-.32,0-.56-.06-.7-.19-.14-.13-.21-.29-.21-.5s.07-.36.21-.49c.14-.13.37-.19.7-.19h2.46ZM541.8,252.46v1.44h-1.62v-1.44h1.62Z"/>
      <path class="cls-1" d="M553.03,258.19c0,.52-.15,1.03-.44,1.52-.29.49-.72.88-1.3,1.17-.57.29-1.17.44-1.8.44s-1.22-.14-1.78-.43c-.57-.29-1-.68-1.3-1.17-.3-.49-.45-1.01-.45-1.54s.15-1.08.45-1.61c.3-.53.74-.94,1.3-1.24.57-.3,1.16-.45,1.77-.45s1.22.15,1.79.46c.57.31,1.01.72,1.3,1.25s.44,1.06.44,1.61ZM551.67,258.19c0-.44-.16-.84-.47-1.21-.43-.5-1-.75-1.7-.75-.62,0-1.13.2-1.54.59-.41.4-.62.85-.62,1.37,0,.43.21.82.63,1.19.42.37.93.56,1.54.56s1.13-.18,1.54-.56c.42-.37.63-.77.63-1.2Z"/>
      <path class="cls-1" d="M556.29,255.05v.46c.25-.21.52-.37.82-.48.3-.11.62-.16.97-.16.81,0,1.45.25,1.92.75.37.4.56.92.56,1.57v2.54c.29,0,.5.06.64.19.14.13.21.29.21.5s-.07.36-.21.49c-.14.13-.37.19-.7.19h-1.23c-.33,0-.56-.06-.7-.19-.14-.13-.21-.29-.21-.5s.07-.36.21-.49c.14-.13.35-.19.64-.19v-2.58c0-.3-.08-.51-.24-.65-.21-.18-.52-.27-.94-.27-.32,0-.59.06-.83.18s-.54.38-.9.78v2.54c.35,0,.58.03.68.1.22.13.33.33.33.59,0,.2-.07.36-.21.49-.14.13-.37.19-.7.19h-1.55c-.33,0-.56-.06-.7-.19-.14-.13-.21-.29-.21-.5,0-.25.11-.44.32-.58.11-.07.33-.1.69-.1v-3.31c-.29,0-.5-.06-.64-.19-.14-.13-.21-.29-.21-.49s.07-.36.21-.49c.14-.13.37-.19.7-.19h1.3Z"/>
    </g>
    <g>
      <path class="cls-1" d="M672.53,226.61v-5.34c-.29,0-.5-.07-.64-.2s-.21-.29-.21-.49.07-.37.21-.5c.14-.13.37-.19.7-.19h2.86c.44,0,.88.09,1.3.25s.76.37,1.02.63c.2.19.4.45.61.79s.37.66.48.99.16.73.16,1.21v.65c0,.58-.1,1.09-.29,1.53s-.45.81-.77,1.09c-.32.28-.62.49-.9.62-.44.21-1.02.31-1.72.31h-2.74c-.33,0-.56-.06-.7-.19-.14-.13-.21-.29-.21-.5s.07-.36.21-.49c.14-.13.35-.19.64-.19ZM673.9,226.61h1.45c.54,0,.95-.08,1.23-.23.36-.2.63-.46.81-.78.18-.31.27-.72.27-1.22v-.65c0-.43-.08-.81-.25-1.13-.26-.51-.55-.85-.87-1.04-.32-.19-.72-.28-1.21-.28h-1.44v5.34Z"/>
      <path class="cls-1" d="M687.19,225.64h-5.6c.14.36.39.64.76.86.36.22.85.33,1.47.33.51,0,1.18-.11,2.02-.33.35-.09.59-.13.72-.13.18,0,.33.06.46.19.12.13.19.29.19.49,0,.18-.07.33-.2.45-.18.16-.61.32-1.3.47-.69.15-1.35.22-1.98.22-1.09,0-1.96-.31-2.62-.93-.65-.62-.98-1.38-.98-2.28,0-.96.35-1.74,1.06-2.34s1.52-.9,2.45-.9c.55,0,1.06.1,1.53.29s.81.41,1.04.63c.32.33.58.73.79,1.22.14.34.21.73.21,1.17v.58ZM685.68,224.28c-.21-.39-.48-.68-.82-.88-.34-.19-.74-.29-1.21-.29s-.86.1-1.2.29c-.34.19-.61.49-.83.88h4.05Z"/>
      <path class="cls-1" d="M693.42,223.53c-.22-.14-.46-.24-.7-.31-.24-.07-.5-.1-.77-.1-.53,0-.95.09-1.26.26-.14.08-.21.16-.21.25,0,.1.09.2.28.3.14.07.46.14.95.21.91.12,1.54.25,1.89.37.47.17.83.41,1.08.73.25.32.38.67.38,1.03,0,.49-.22.9-.65,1.23-.62.47-1.42.71-2.4.71-.4,0-.76-.03-1.1-.1-.33-.07-.64-.17-.92-.3-.07.06-.14.1-.21.13-.08.03-.15.05-.23.05-.21,0-.38-.07-.51-.21-.13-.14-.19-.37-.19-.7v-.46c0-.33.06-.56.19-.7.13-.14.29-.21.5-.21.16,0,.3.05.41.14.11.09.2.25.26.47.21.18.46.31.75.4s.63.14,1.01.14c.62,0,1.11-.1,1.46-.29.16-.1.25-.2.25-.31,0-.18-.12-.32-.35-.44-.24-.12-.72-.21-1.46-.29-1.1-.12-1.83-.34-2.2-.67-.37-.32-.55-.72-.55-1.2s.21-.89.62-1.22c.56-.44,1.29-.67,2.2-.67.31,0,.62.03.91.09.29.06.57.15.84.28.08-.06.16-.11.24-.14s.14-.05.2-.05c.19,0,.34.07.47.21s.19.37.19.7v.33c0,.3-.04.5-.11.61-.14.2-.33.31-.58.31-.16,0-.31-.05-.43-.15-.12-.1-.21-.24-.24-.41Z"/>
      <path class="cls-1" d="M700.81,221.93v4.68h1.64c.33,0,.56.06.7.19.14.13.21.29.21.5s-.07.36-.21.49c-.14.13-.37.19-.7.19h-4.64c-.33,0-.56-.06-.7-.19-.14-.13-.21-.29-.21-.5s.07-.36.21-.49c.14-.13.37-.19.7-.19h1.64v-3.31h-1.1c-.32,0-.56-.06-.7-.19-.14-.13-.21-.29-.21-.5s.07-.36.21-.49c.14-.13.37-.19.7-.19h2.46ZM700.62,219.34v1.44h-1.62v-1.44h1.62Z"/>
      <path class="cls-1" d="M709.81,222.33v-.41h1.6c.33,0,.56.06.7.19.14.13.21.29.21.5s-.07.36-.21.49c-.14.13-.37.19-.7.19h-.23v4.97c0,.48-.1.9-.3,1.25s-.51.67-.93.92c-.42.26-.89.39-1.41.39h-1.54c-.33,0-.56-.06-.7-.19-.14-.13-.21-.29-.21-.49s.07-.37.21-.5c.14-.13.37-.19.7-.19h1.5c.42,0,.74-.11.97-.34.23-.23.35-.51.35-.86v-.67c-.3.2-.61.34-.92.44-.31.1-.63.15-.96.15-.93,0-1.7-.31-2.33-.93s-.94-1.38-.94-2.29.31-1.68.94-2.3,1.4-.93,2.33-.93c.35,0,.68.05.99.15.31.1.61.25.89.46ZM709.81,224.95c0-.5-.19-.94-.56-1.3-.37-.37-.82-.55-1.33-.55s-.96.18-1.33.55c-.37.37-.56.8-.56,1.3s.19.94.56,1.31c.37.37.82.55,1.33.55s.96-.18,1.33-.55c.37-.37.56-.8.56-1.31Z"/>
      <path class="cls-1" d="M715.11,221.93v.46c.25-.21.52-.37.82-.48.3-.11.62-.16.97-.16.81,0,1.45.25,1.92.75.37.4.56.92.56,1.57v2.54c.29,0,.5.06.64.19.14.13.21.29.21.5s-.07.36-.21.49c-.14.13-.37.19-.7.19h-1.23c-.33,0-.56-.06-.7-.19-.14-.13-.21-.29-.21-.5s.07-.36.21-.49c.14-.13.35-.19.64-.19v-2.58c0-.3-.08-.51-.24-.65-.21-.18-.52-.27-.94-.27-.32,0-.59.06-.83.18s-.54.38-.9.78v2.54c.35,0,.58.03.68.1.22.13.33.33.33.59,0,.2-.07.36-.21.49-.14.13-.37.19-.7.19h-1.55c-.33,0-.56-.06-.7-.19-.14-.13-.21-.29-.21-.5,0-.25.11-.44.32-.58.11-.07.33-.1.69-.1v-3.31c-.29,0-.5-.06-.64-.19-.14-.13-.21-.29-.21-.49s.07-.36.21-.49c.14-.13.37-.19.7-.19h1.3Z"/>
      <path class="cls-1" d="M696.72,241.14v2.28c0,.33-.06.56-.19.7s-.29.21-.49.21-.37-.07-.5-.21c-.13-.14-.19-.37-.19-.7v-2.28h-1.95c-.33,0-.56-.06-.7-.19-.14-.13-.21-.29-.21-.5s.07-.37.21-.5c.14-.13.37-.19.7-.18h1.95v-2.28c0-.32.06-.56.19-.7.13-.14.29-.21.5-.21s.37.07.5.21c.13.14.19.37.19.7v2.28s1.94,0,1.94,0c.33,0,.56.06.7.19.14.12.21.29.21.49s-.07.37-.21.5c-.14.13-.37.19-.7.19h-1.95Z"/>
      <path class="cls-1" d="M685.91,252.97c.08-.12.18-.2.28-.26s.21-.09.32-.09c.2,0,.36.07.49.21.13.14.19.37.19.7v1.16c0,.33-.06.56-.19.7-.13.14-.29.21-.49.21-.18,0-.33-.05-.44-.15-.11-.1-.19-.29-.25-.57-.03-.19-.09-.33-.19-.43-.18-.2-.44-.36-.76-.48s-.65-.18-.98-.18c-.41,0-.78.09-1.12.27-.34.18-.64.47-.91.87s-.39.87-.39,1.42v.88c0,.66.24,1.21.72,1.64.48.44,1.14.66,1.99.66.51,0,.93-.07,1.28-.21.2-.08.42-.24.65-.47.14-.14.25-.23.33-.28s.17-.06.27-.06c.18,0,.34.07.48.21.14.14.21.3.21.49s-.09.39-.28.6c-.27.31-.62.56-1.05.73-.57.24-1.21.36-1.9.36-.81,0-1.54-.17-2.18-.5-.52-.27-.97-.69-1.34-1.26-.37-.57-.55-1.2-.55-1.88v-.93c0-.71.17-1.37.5-1.99.33-.61.79-1.09,1.38-1.42.59-.33,1.21-.5,1.86-.5.39,0,.76.05,1.11.14s.66.23.96.42Z"/>
      <path class="cls-1" d="M695.49,257.79c0,.52-.15,1.03-.44,1.52-.29.49-.72.88-1.3,1.17-.57.29-1.17.44-1.8.44s-1.22-.14-1.78-.43c-.57-.29-1-.68-1.3-1.17-.3-.49-.45-1.01-.45-1.54s.15-1.08.45-1.61c.3-.53.74-.94,1.3-1.24.57-.3,1.16-.45,1.77-.45s1.22.15,1.79.46c.57.31,1.01.72,1.3,1.25s.44,1.06.44,1.61ZM694.13,257.79c0-.44-.16-.84-.47-1.21-.43-.5-1-.75-1.7-.75-.62,0-1.13.2-1.54.59-.41.4-.62.85-.62,1.37,0,.43.21.82.63,1.19.42.37.93.56,1.54.56s1.13-.18,1.54-.56c.42-.37.63-.77.63-1.2Z"/>
      <path class="cls-1" d="M698.44,259.94v2.24h.82c.33,0,.56.06.7.19.14.13.21.29.21.5s-.07.36-.21.49c-.14.13-.37.19-.7.19h-2.42c-.33,0-.56-.06-.7-.19-.14-.13-.21-.29-.21-.49s.07-.37.21-.5c.14-.13.38-.19.7-.19h.23v-6.16h-.23c-.33,0-.56-.06-.7-.19-.14-.13-.21-.29-.21-.5s.07-.36.21-.49c.14-.13.37-.19.7-.19h1.6v.47c.32-.22.65-.38.99-.49.34-.11.69-.16,1.05-.16.93,0,1.73.32,2.38.95.66.63.99,1.36.99,2.17,0,.9-.39,1.64-1.17,2.23-.65.49-1.38.73-2.19.73-.35,0-.7-.05-1.04-.15-.34-.1-.68-.25-1.02-.46ZM702.48,257.6c0-.19-.08-.43-.23-.73-.15-.3-.38-.54-.7-.74-.31-.2-.68-.3-1.1-.3-.68,0-1.22.26-1.62.77-.27.35-.41.69-.41,1.01,0,.36.19.72.58,1.06.39.34.87.52,1.44.52s1.06-.17,1.44-.51.58-.7.58-1.08Z"/>
      <path class="cls-1" d="M707.55,260.65l-2.36-4.63c-.22-.03-.39-.1-.51-.23-.12-.12-.17-.28-.17-.45,0-.2.07-.37.21-.5.14-.13.37-.19.7-.19h1.25c.33,0,.56.06.7.19.14.13.21.29.21.5s-.07.36-.21.49c-.14.13-.36.19-.66.19l1.61,3.13,1.6-3.13c-.29,0-.51-.06-.65-.19-.14-.13-.21-.29-.21-.5s.07-.36.21-.49c.14-.13.37-.19.7-.19h1.29c.32,0,.56.06.7.19.14.13.21.29.21.5,0,.18-.06.34-.18.46-.12.13-.3.2-.53.22l-3.13,6.16c.34,0,.57.03.67.1.21.14.32.33.32.59,0,.2-.07.36-.21.49-.14.13-.37.19-.7.19h-2.98c-.33,0-.56-.06-.7-.19-.14-.13-.21-.29-.21-.49s.07-.37.21-.5c.14-.13.37-.19.7-.19h1.36l.77-1.53Z"/>
    </g>
  </g>
  <g id="Publish" data-target="publishing">
    <g>
      <circle class="cls-2" cx="897.91" cy="168.43" r="64.28"/>
      <g>
        <path class="cls-3" d="M872.57,169.08v1.4h1.38c.33,0,.56.06.7.19.14.13.21.29.21.5s-.07.36-.21.49c-.14.13-.37.19-.7.19h-2.96c-.33,0-.56-.06-.7-.19-.14-.13-.21-.29-.21-.5s.07-.36.21-.49c.14-.13.38-.19.7-.19h.21v-5.34h-.21c-.33,0-.56-.06-.7-.19-.14-.13-.21-.29-.21-.5s.07-.37.21-.5c.14-.13.37-.19.7-.19h3.14c.92,0,1.65.26,2.19.76.54.5.81,1.12.81,1.84,0,.4-.09.78-.27,1.13-.14.27-.37.53-.69.79-.32.26-.65.46-.99.59s-.78.2-1.33.2h-1.29ZM872.57,167.72h1.27c.59,0,1.07-.13,1.41-.4s.52-.59.52-.97c0-.32-.14-.6-.42-.84-.28-.24-.69-.36-1.21-.36h-1.57v2.57Z"/>
        <path class="cls-3" d="M884.44,165.81v4.68c.29,0,.5.06.64.19.14.13.21.29.21.49s-.07.36-.21.49c-.14.13-.37.19-.7.19h-1.3v-.31c-.39.18-.76.31-1.12.4-.35.09-.69.13-1.01.13-.45,0-.84-.09-1.17-.28s-.59-.45-.78-.78c-.14-.24-.21-.54-.21-.9v-2.94h-.23c-.33,0-.56-.06-.7-.19-.14-.13-.21-.29-.21-.5s.07-.36.21-.49c.14-.13.37-.19.7-.19h1.6v4.06c0,.29.07.5.21.64.14.13.35.2.64.2s.57-.05.89-.16c.32-.11.71-.3,1.18-.59v-2.78h-.49c-.33,0-.56-.06-.7-.19-.14-.13-.21-.29-.21-.5s.07-.36.21-.49c.14-.13.37-.19.7-.19h1.86Z"/>
        <path class="cls-3" d="M888,163.22v3.06c.33-.22.67-.38,1.02-.49.34-.11.69-.16,1.04-.16.95,0,1.75.33,2.4.98.66.65.99,1.44.99,2.36s-.31,1.62-.94,2.21-1.45.89-2.48.89c-.36,0-.71-.05-1.05-.14-.34-.09-.66-.23-.98-.41v.33h-1.6c-.33,0-.56-.06-.7-.19-.14-.13-.21-.29-.21-.5s.07-.36.21-.49c.14-.13.38-.19.7-.19h.23v-5.9h-.23c-.33,0-.56-.06-.7-.19-.14-.13-.21-.29-.21-.5s.07-.36.21-.49c.14-.13.37-.19.7-.19h1.6ZM892.08,169.01c0-.56-.2-1.04-.59-1.43-.39-.39-.88-.59-1.45-.59s-1.05.2-1.44.59c-.4.39-.59.86-.59,1.41,0,.5.18.91.53,1.23.36.32.86.48,1.5.48s1.15-.16,1.51-.48c.36-.32.54-.73.54-1.21Z"/>
        <path class="cls-3" d="M898.59,163.22v7.27h1.64c.33,0,.56.06.7.19.14.13.21.29.21.5s-.07.36-.21.49c-.14.13-.37.19-.7.19h-4.64c-.33,0-.56-.06-.7-.19-.14-.13-.21-.29-.21-.5s.07-.36.21-.49c.14-.13.37-.19.7-.19h1.64v-5.9h-1.1c-.32,0-.56-.06-.7-.19-.14-.13-.21-.29-.21-.5s.07-.36.21-.49c.14-.13.37-.19.7-.19h2.46Z"/>
        <path class="cls-3" d="M906.76,165.81v4.68h1.64c.33,0,.56.06.7.19.14.13.21.29.21.5s-.07.36-.21.49c-.14.13-.37.19-.7.19h-4.64c-.33,0-.56-.06-.7-.19-.14-.13-.21-.29-.21-.5s.07-.36.21-.49c.14-.13.37-.19.7-.19h1.64v-3.31h-1.1c-.32,0-.56-.06-.7-.19-.14-.13-.21-.29-.21-.5s.07-.36.21-.49c.14-.13.37-.19.7-.19h2.46ZM906.58,163.22v1.44h-1.62v-1.44h1.62Z"/>
        <path class="cls-3" d="M915.74,167.41c-.22-.14-.46-.24-.7-.31-.24-.07-.5-.1-.77-.1-.53,0-.95.09-1.26.26-.14.08-.21.16-.21.25,0,.1.09.2.28.3.14.07.46.14.95.21.91.12,1.54.25,1.89.37.47.17.83.41,1.08.73.25.32.38.67.38,1.03,0,.49-.22.9-.65,1.23-.62.47-1.42.71-2.4.71-.4,0-.76-.03-1.1-.1-.33-.07-.64-.17-.92-.3-.07.06-.14.1-.21.13-.08.03-.15.05-.23.05-.21,0-.38-.07-.51-.21-.13-.14-.19-.37-.19-.7v-.46c0-.33.06-.56.19-.7.13-.14.29-.21.5-.21.16,0,.3.05.41.14.11.09.2.25.26.47.21.18.46.31.75.4s.63.14,1.01.14c.62,0,1.11-.1,1.46-.29.16-.1.25-.2.25-.31,0-.18-.12-.32-.35-.44-.24-.12-.72-.21-1.46-.29-1.1-.12-1.83-.34-2.2-.67-.37-.32-.55-.72-.55-1.2s.21-.89.62-1.22c.56-.44,1.29-.67,2.2-.67.31,0,.62.03.91.09.29.06.57.15.84.28.08-.06.16-.11.24-.14s.14-.05.2-.05c.19,0,.34.07.47.21s.19.37.19.7v.33c0,.3-.04.5-.11.61-.14.2-.33.31-.58.31-.16,0-.31-.05-.43-.15-.12-.1-.21-.24-.24-.41Z"/>
        <path class="cls-3" d="M921.04,163.22v2.91c.28-.17.57-.29.86-.38s.58-.12.88-.12c.47,0,.89.08,1.26.24.37.16.67.41.92.76s.36.78.36,1.3v2.56c.35,0,.57.03.68.1.21.14.32.33.32.59,0,.2-.07.36-.21.49-.14.13-.37.19-.7.19h-1.56c-.32,0-.56-.06-.7-.19-.14-.13-.21-.29-.21-.5,0-.25.11-.44.32-.58.11-.07.34-.1.68-.1v-2.47c0-.35-.08-.6-.24-.74-.21-.19-.52-.29-.93-.29-.3,0-.57.06-.8.18-.23.12-.55.37-.94.76v2.56c.35,0,.58.03.68.1.22.14.33.33.33.59,0,.2-.07.36-.21.49-.14.13-.37.19-.7.19h-1.55c-.33,0-.56-.06-.7-.19-.14-.13-.21-.29-.21-.5,0-.25.11-.44.33-.58.11-.07.33-.1.68-.1v-5.9h-.23c-.33,0-.56-.06-.7-.19-.14-.13-.21-.29-.21-.5s.07-.36.21-.49c.14-.13.37-.19.7-.19h1.6Z"/>
      </g>
    </g>
  </g>
</svg>