<?xml version="1.0" encoding="utf-8"?>
<!-- Generator: Adobe Illustrator 16.0.0, SVG Export Plug-In . SVG Version: 6.00 Build 0)  -->
<!DOCTYPE svg PUBLIC "-//W3C//DTD SVG 1.1//EN" "http://www.w3.org/Graphics/SVG/1.1/DTD/svg11.dtd">
<svg version="1.1" id="Layer_1" xmlns="http://www.w3.org/2000/svg" xmlns:xlink="http://www.w3.org/1999/xlink" x="0px" y="0px"
	 width="450px" height="100px" viewBox="0 0 450 100" enable-background="new 0 0 450 100" xml:space="preserve">
<g>
	<defs>
		<rect id="SVGID_1_" x="9.333" y="31.615" width="128" height="38.115"/>
	</defs>
	<clipPath id="SVGID_2_">
		<use xlink:href="#SVGID_1_"  overflow="visible"/>
	</clipPath>
	<g clip-path="url(#SVGID_2_)">
		<path d="M13.58,41.903v5.477h-3.274V31.837h6.2c1.193,0,2.243,0.213,3.149,0.641c0.906,0.427,1.603,1.034,2.09,1.82
			c0.487,0.787,0.731,1.682,0.731,2.685c0,1.523-0.533,2.724-1.599,3.603c-1.066,0.879-2.542,1.318-4.426,1.318H13.58z M13.58,39.31
			h2.925c0.866,0,1.526-0.199,1.981-0.598c0.455-0.398,0.682-0.968,0.682-1.708c0-0.761-0.229-1.377-0.688-1.847
			c-0.458-0.47-1.092-0.711-1.899-0.726H13.58V39.31z"/>
		<path d="M27.999,44.807h6.953v2.573H24.725V31.837h3.274V44.807z"/>
		<path d="M45.802,44.177h-5.741l-1.091,3.203h-3.482l5.917-15.543h3.034l5.949,15.543h-3.482L45.802,44.177z M40.945,41.583h3.973
			l-1.998-5.818L40.945,41.583z"/>
		<path d="M64.795,47.38H61.52l-6.375-10.227V47.38h-3.274V31.837h3.274l6.386,10.248V31.837h3.264V47.38z"/>
		<path d="M80.578,47.38h-3.275l-6.375-10.227V47.38h-3.274V31.837h3.274l6.386,10.248V31.837h3.264V47.38z"/>
		<path d="M86.92,47.38h-3.274V31.837h3.274V47.38z"/>
		<path d="M102.878,47.38h-3.275l-6.375-10.227V47.38h-3.274V31.837h3.274l6.386,10.248V31.837h3.264V47.38z"/>
		<path d="M118.312,45.416c-0.589,0.69-1.422,1.226-2.5,1.607c-1.077,0.38-2.271,0.571-3.58,0.571c-1.375,0-2.582-0.293-3.619-0.88
			c-1.037-0.587-1.837-1.439-2.401-2.557c-0.564-1.117-0.853-2.43-0.868-3.939V39.16c0-1.552,0.268-2.895,0.802-4.03
			c0.535-1.135,1.306-2.003,2.314-2.604c1.007-0.602,2.188-0.902,3.542-0.902c1.884,0,3.358,0.44,4.42,1.319
			s1.692,2.158,1.888,3.837h-3.187c-0.146-0.89-0.468-1.541-0.966-1.954c-0.499-0.413-1.185-0.619-2.058-0.619
			c-1.113,0-1.961,0.41-2.543,1.228s-0.877,2.035-0.884,3.651v0.993c0,1.63,0.317,2.861,0.95,3.693
			c0.633,0.833,1.561,1.249,2.784,1.249c1.229,0,2.106-0.256,2.63-0.769v-2.679h-2.98v-2.359h6.254V45.416z"/>
		<path d="M132.688,38.68h3.94v2.786h-3.94v4.355h-3.001v-4.355h-3.952V38.68h3.952v-4.174h3.001V38.68z"/>
	</g>
	<g clip-path="url(#SVGID_2_)">
		<path d="M22.269,56.554H17.4v12.949h-3.274V56.554H9.323V53.96h12.946V56.554z"/>
		<path d="M33.697,62.767H27.41v4.164h7.379v2.572H24.135V53.96h10.631v2.594H27.41v3.705h6.288V62.767z"/>
		<path d="M49.186,64.326c-0.124,1.674-0.755,2.99-1.894,3.951c-1.139,0.961-2.64,1.441-4.503,1.441
			c-2.037,0-3.64-0.672-4.808-2.014s-1.752-3.182-1.752-5.523V61.23c0-1.494,0.27-2.811,0.808-3.949
			c0.538-1.139,1.308-2.012,2.309-2.621c1-0.607,2.163-0.912,3.487-0.912c1.833,0,3.311,0.48,4.432,1.441s1.768,2.309,1.943,4.045
			h-3.274c-0.081-1.004-0.366-1.73-0.857-2.182c-0.491-0.453-1.239-0.68-2.243-0.68c-1.092,0-1.909,0.383-2.451,1.148
			s-0.82,1.951-0.835,3.561v1.174c0,1.68,0.26,2.908,0.781,3.684c0.52,0.775,1.34,1.162,2.461,1.162
			c1.012,0,1.767-0.225,2.265-0.678c0.499-0.451,0.784-1.15,0.857-2.098H49.186z"/>
		<path d="M64.271,69.503h-3.274v-6.66H54.61v6.66h-3.274V53.96h3.274v6.299h6.386V53.96h3.274V69.503z"/>
	</g>
</g>
<g>
	<path stroke="#000000" stroke-width="0.5844" stroke-miterlimit="10" d="M173.37,37.841c0.357-0.014,1.924,1.545,2.238,2.226
		c0.193,0.419,0.208,0.644,0.063,0.993c-0.119,0.288-0.14,1.677-0.058,3.825l0.129,3.373l0.75,1.02
		c1.146,1.557,1.239,1.865,0.739,2.443c-0.23,0.266-0.587,0.84-0.802,1.293c-0.36,0.761-0.383,1.082-0.332,4.813
		c0.052,3.75,0.029,4.074-0.358,5.224c-0.718,2.125-1.525,2.63-2.607,1.628l-0.571-0.528l0.017-2.606
		c0.009-1.439,0.028-3.439,0.043-4.472c0.016-1.139-0.047-1.97-0.161-2.128c-0.161-0.223-0.786-0.087-4.374,0.949
		c-2.303,0.665-4.287,1.24-4.413,1.277c-0.322,0.097-0.117,4.319,0.271,5.565c0.973,3.128,0.844,4.042-0.577,4.104
		c-0.814,0.036-1.588-0.856-2.187-2.523c-0.706-1.966-0.94-3.768-1.43-11.021c-0.355-5.267-0.507-6.706-0.813-7.721
		c-0.875-2.9-0.813-3.418,0.41-3.465c0.571-0.021,0.839,0.098,1.537,0.691c1.447,1.229,1.604,1.731,1.867,5.989
		c0.215,3.494,0.247,3.702,0.609,3.938c0.803,0.518,3.044,0.08,6.725-1.31l2.278-0.861l-0.132-5.792l-0.133-5.791l0.504-0.562
		C172.88,38.101,173.222,37.847,173.37,37.841z"/>
	<path stroke="#000000" stroke-width="0.5844" stroke-miterlimit="10" d="M189.663,38.497c1.126,0.938,1.203,1.186,1.585,5.089
		c0.483,4.937,0.638,5.784,1.241,6.816l0.536,0.918l-0.402,0.769c-0.385,0.733-0.397,0.902-0.286,3.811
		c0.095,2.491,0.208,3.438,0.623,5.224c0.435,1.876,0.478,2.258,0.306,2.709c-0.11,0.289-0.328,0.532-0.482,0.538
		c-0.687,0.026-1.659-0.311-1.923-0.664c-0.354-0.476-0.829-2.931-1.121-7.038c-0.249-3.506-0.017-3.366-1.96-2.904
		c-0.699,0.165-1.818,0.366-2.521,0.452c-1.456,0.177-1.799,0.411-2.019,1.378c-0.087,0.381-0.535,1.945-0.999,3.486
		c-0.896,2.981-1.22,4.401-1.36,5.963c-0.069,0.771-0.172,1.03-0.491,1.249c-0.224,0.151-0.547,0.253-0.723,0.228
		c-0.455-0.067-1.124-1.221-1.297-2.236c-0.204-1.193,0.021-2.41,1.115-6.018c0.515-1.694,0.923-3.253,0.914-3.483
		c-0.009-0.232-0.345-0.809-0.754-1.294c-0.603-0.714-0.744-1.013-0.767-1.611l-0.028-0.736l0.663,0.05
		c0.371,0.028,0.804,0.103,0.984,0.169c0.586,0.215,1.4-0.938,1.966-2.784c0.279-0.914,1.378-3.442,2.444-5.626
		c1.066-2.184,1.933-4.079,1.927-4.217c-0.005-0.141,0.231-0.403,0.542-0.6C188.24,37.583,188.644,37.648,189.663,38.497z
		 M187.577,43.714c-1.13,1.471-2.755,5.653-2.705,6.961c0.015,0.402-0.16,0.415,0.802,0.269c1.528-0.231,3.387-0.896,3.377-1.149
		c-0.01-0.263-0.834-5.481-1.005-6.147C187.902,43.088,188.057,43.089,187.577,43.714z"/>
	<path stroke="#000000" stroke-width="0.5844" stroke-miterlimit="10" d="M208.212,41.032c0.487,0.687,0.313,1.287-0.518,1.774
		c-2.658,1.56-7.841,7.39-9.759,10.977c-0.944,1.768-1.215,2.604-1.175,3.643c0.028,0.747,0.101,0.908,0.618,1.357
		c1.014,0.881,1.618,0.938,7.538,0.712c5.056-0.193,5.471-0.232,8.297-0.791c2.182-0.431,3.44-0.779,4.722-1.305
		c0.968-0.396,1.866-0.72,2.014-0.726c0.462-0.018,1.137,0.689,1.258,1.317c0.102,0.531,0.041,0.681-0.572,1.404
		c-0.396,0.465-1.142,1.061-1.761,1.402c-2.597,1.433-9.372,2.759-15.275,2.99c-2.993,0.118-4.949-0.38-6.777-1.722
		c-0.995-0.729-2.291-2.642-2.971-4.38c-0.423-1.083-0.461-1.325-0.354-2.235c0.385-3.283,2.48-6.589,7.996-12.613
		c1.786-1.95,2.27-2.385,2.761-2.487c0.33-0.068,0.668-0.15,0.759-0.185C205.899,39.83,207.705,40.319,208.212,41.032z"/>
	<path stroke="#000000" stroke-width="0.5844" stroke-miterlimit="10" d="M221.137,37.284l1.074-0.041
		c0.953-0.036,1.129,0.019,1.55,0.484c0.747,0.823,0.9,1.388,1.227,4.521c0.167,1.603,0.359,3.009,0.425,3.109
		c0.233,0.357,0.885,0.15,2.996-0.955c2.249-1.176,2.82-1.611,5.42-4.13c2.383-2.309,2.794-2.643,3.268-2.661
		c0.487-0.019,1.077,0.764,1.497,1.983c0.559,1.624-0.386,2.577-6.451,6.501c-4.896,3.167-4.823,3.112-4.745,3.641
		c0.062,0.417,0.303,0.607,1.407,1.109c4.686,2.13,6.393,2.511,9.629,2.151c3.858-0.429,3.741-0.442,4.715,0.519
		c0.896,0.883,1.146,1.725,0.647,2.173c-0.14,0.124-1.252,0.555-2.472,0.957c-2.145,0.706-2.271,0.726-3.796,0.589
		c-1.849-0.166-3.411-0.604-7.133-1.998c-1.5-0.563-2.997-1.049-3.346-1.088c-0.563-0.062-0.641-0.016-0.741,0.45
		c-0.068,0.319,0.209,2.023,0.721,4.437c0.814,3.825,0.826,3.93,0.504,4.398c-0.784,1.143-2.549,0.884-3.233-0.476
		c-0.332-0.66-0.414-1.22-0.497-3.406c-0.066-1.738-0.207-2.958-0.421-3.635c-0.357-1.131-0.741-3.939-1.169-8.565
		c-0.208-2.256-0.399-3.398-0.715-4.278c-0.379-1.059-0.426-1.472-0.396-3.494L221.137,37.284z"/>
	<path stroke="#000000" stroke-width="0.5844" stroke-miterlimit="10" d="M256.249,35.955c1.124,0.938,1.202,1.186,1.584,5.089
		c0.483,4.937,0.638,5.784,1.241,6.816l0.536,0.918l-0.402,0.769c-0.386,0.734-0.397,0.902-0.287,3.811
		c0.096,2.491,0.208,3.438,0.623,5.224c0.436,1.876,0.479,2.258,0.306,2.709c-0.109,0.289-0.327,0.532-0.482,0.538
		c-0.686,0.026-1.658-0.311-1.921-0.664c-0.354-0.476-0.831-2.931-1.123-7.038c-0.248-3.506-0.016-3.366-1.959-2.903
		c-0.699,0.165-1.818,0.366-2.521,0.451c-1.455,0.177-1.8,0.411-2.019,1.378c-0.088,0.381-0.534,1.945-0.999,3.487
		c-0.896,2.98-1.221,4.4-1.361,5.962c-0.069,0.771-0.171,1.03-0.49,1.249c-0.224,0.152-0.547,0.253-0.724,0.228
		c-0.454-0.067-1.124-1.221-1.296-2.236c-0.204-1.193,0.021-2.41,1.115-6.018c0.514-1.694,0.923-3.253,0.914-3.483
		c-0.009-0.232-0.344-0.809-0.755-1.294c-0.602-0.714-0.743-1.013-0.767-1.611l-0.028-0.736l0.663,0.05
		c0.372,0.028,0.804,0.103,0.984,0.169c0.588,0.215,1.4-0.938,1.967-2.784c0.278-0.914,1.377-3.442,2.445-5.626
		c1.065-2.183,1.931-4.079,1.926-4.217c-0.006-0.141,0.231-0.403,0.541-0.6C254.825,35.041,255.229,35.106,256.249,35.955z
		 M254.162,41.172c-1.129,1.471-2.755,5.653-2.705,6.961c0.016,0.402-0.16,0.415,0.801,0.27c1.528-0.232,3.388-0.897,3.378-1.151
		c-0.01-0.263-0.834-5.48-1.005-6.146C254.487,40.546,254.643,40.547,254.162,41.172z"/>
	<path stroke="#000000" stroke-width="0.5844" stroke-miterlimit="10" d="M293.1,34.548c0.429-0.03,0.761,0.114,1.294,0.56
		c1.87,1.564,1.324,2.574-1.778,3.288c-0.75,0.172-2.024,0.534-2.849,0.808c-1.949,0.647-5.315,1.423-8.284,1.908
		c-1.308,0.214-2.42,0.423-2.463,0.464c-0.042,0.041,0.722,3.697,1.698,8.141c1.45,6.594,1.785,8.384,1.833,9.807
		c0.063,1.828-0.052,2.311-0.62,2.644c-0.771,0.451-2.49-0.817-2.916-2.153c-0.118-0.366-0.249-1.59-0.291-2.708
		c-0.089-2.315-0.579-4.939-1.682-9.005c-0.406-1.495-0.878-3.272-1.044-3.934c-0.169-0.669-0.483-1.437-0.707-1.725
		c-0.375-0.484-0.454-0.509-1.214-0.38c-0.448,0.076-2.122,0.311-3.73,0.524c-1.61,0.213-3.749,0.619-4.767,0.903
		c-3.572,0.998-4.931,0.937-5.604-0.249c-0.405-0.713-0.41-1.794-0.012-2.347c0.69-0.956,0.979-1.016,9.089-1.896
		c1.363-0.148,2.833-0.39,3.268-0.538c0.764-0.259,0.999-0.511,2.099-2.242c0.211-0.332,0.275-0.325,1.538,0.178
		c2.151,0.856,2.88,0.915,5.582,0.451c1.295-0.222,4.288-0.865,6.666-1.43C290.585,35.05,292.782,34.57,293.1,34.548z"/>
	<path stroke="#000000" stroke-width="0.5844" stroke-miterlimit="10" d="M310.685,32.599c0.357-0.014,1.924,1.545,2.238,2.226
		c0.194,0.419,0.209,0.644,0.063,0.993c-0.119,0.288-0.141,1.677-0.059,3.825l0.129,3.373l0.751,1.021
		c1.147,1.557,1.239,1.864,0.739,2.442c-0.23,0.266-0.587,0.841-0.802,1.293c-0.36,0.761-0.382,1.082-0.332,4.813
		c0.052,3.749,0.029,4.074-0.358,5.223c-0.718,2.126-1.526,2.63-2.607,1.629l-0.57-0.529l0.016-2.605
		c0.01-1.44,0.027-3.44,0.043-4.473c0.016-1.139-0.047-1.969-0.162-2.128c-0.16-0.223-0.785-0.087-4.372,0.95
		c-2.304,0.664-4.288,1.239-4.414,1.276c-0.323,0.097-0.117,4.319,0.271,5.565c0.972,3.128,0.845,4.043-0.577,4.104
		c-0.814,0.036-1.588-0.856-2.187-2.522c-0.705-1.967-0.939-3.769-1.43-11.022c-0.355-5.267-0.507-6.706-0.814-7.721
		c-0.873-2.9-0.812-3.418,0.411-3.465c0.571-0.022,0.839,0.098,1.537,0.691c1.448,1.228,1.604,1.731,1.867,5.988
		c0.214,3.495,0.246,3.703,0.609,3.937c0.804,0.518,3.044,0.081,6.725-1.31l2.278-0.861l-0.132-5.791l-0.133-5.791l0.503-0.562
		C310.195,32.858,310.536,32.605,310.685,32.599z"/>
	<path stroke="#000000" stroke-width="0.5844" stroke-miterlimit="10" d="M329.514,38.28c2.323,0.509,4.441,2.511,5.881,5.556
		c0.808,1.706,1.18,3.366,1.099,4.896c-0.156,2.916-1.901,5.645-4.872,7.612c-1.207,0.799-2.045,1.189-4.108,1.914
		c-1.83,0.641-2.051,0.672-3.681,0.52c-2.464-0.229-4.531-0.809-5.515-1.545c-0.328-0.247-1.728-2.287-2.367-3.454
		c-0.548-0.997-0.601-1.137-0.63-1.704c-0.027-0.514,0.024-0.786,0.314-1.651c0.191-0.572,0.344-1.132,0.339-1.25
		c-0.005-0.116-0.104-0.455-0.219-0.741c-0.275-0.69-0.313-1.494-0.096-2.043c0.208-0.529,0.625-0.993,1.77-1.974
		c0.51-0.438,1.317-1.148,1.803-1.589c2.839-2.573,5.317-4.081,7.42-4.514C327.255,38.187,329.003,38.168,329.514,38.28z
		 M327.986,42.316c-3.455,2.149-6.234,4.464-7.398,6.167c-1.615,2.362-1.726,5.23-0.237,6.259c0.64,0.442,1.176,0.546,2.767,0.532
		c1.172-0.011,1.56-0.05,2.309-0.234c3.828-0.941,6.519-3.248,6.99-5.989c0.13-0.764,0.03-2.402-0.202-3.293
		c-0.334-1.278-0.756-2.083-1.419-2.709c-0.315-0.297-0.721-0.611-0.899-0.694C329.462,42.148,328.292,42.125,327.986,42.316z"/>
	<path stroke="#000000" stroke-width="0.5844" stroke-miterlimit="10" d="M357.625,34.792c0.288,0.547,0.375,0.859,0.631,2.295
		c0.326,1.822,0.407,2.194,1.104,5.004c0.879,3.54,1.009,6.238,0.432,8.938c-0.523,2.457-1.454,4.014-2.845,4.765
		c-0.544,0.293-0.67,0.325-1.414,0.354c-0.754,0.028-0.872,0.007-1.52-0.271c-1.543-0.665-4.089-2.348-6.146-4.059
		c-1.38-1.149-2.073-1.849-2.905-2.932c-1.188-1.546-1.913-2.37-2.44-2.772l-0.431-0.328l0.015,0.39
		c0.016,0.404,0.124,0.896,1.489,6.744c0.564,2.415,0.825,3.693,0.809,3.978c-0.059,1.039-0.961,2.12-1.797,2.152
		c-1.332,0.051-2.692-3.144-3.907-9.171c-0.19-0.947-0.462-2.178-0.606-2.75c-0.589-2.341-1.617-7.895-1.697-9.164
		c-0.028-0.463,0.005-0.617,0.202-0.944c0.571-0.942,1.71-1.041,2.84-0.247c0.192,0.135,0.908,0.831,1.605,1.559
		c0.696,0.729,1.391,1.453,1.554,1.623c0.161,0.168,1.081,1.404,2.04,2.741c1.666,2.319,2.01,2.766,3.56,4.637
		c1.985,2.397,4.108,4.325,5.312,4.825c0.639,0.266,1.288,0.259,1.627-0.015c0.396-0.32,0.769-0.922,0.95-1.538
		c0.093-0.318,0.248-1.319,0.343-2.223c0.152-1.434,0.161-1.846,0.065-3.23c-0.136-2.013-0.795-5.476-1.271-6.679
		c-0.085-0.215-0.155-0.473-0.159-0.584c-0.009-0.215-0.534-1.253-0.922-1.82c-0.291-0.425-0.312-0.607-0.146-1.259
		c0.147-0.579,0.568-1.19,0.986-1.433C355.864,32.868,356.898,33.42,357.625,34.792z"/>
	<path stroke="#000000" stroke-width="0.5844" stroke-miterlimit="10" d="M382.059,34.136c-1.799,0.068-2.799-0.258-2.997-0.979
		l-0.14-3.663c-0.012-0.3,0.937-1.312,2.844-3.037l0.354-0.014c0.492-0.019,0.747,0.208,0.766,0.679
		c0.009,0.236-0.455,0.994-1.393,2.273l0.026,0.707c1.222-0.047,1.846,0.305,1.874,1.054l0.07,1.832
		c0.013,0.343-0.338,0.72-1.051,1.134L382.059,34.136z"/>
	<path stroke="#000000" stroke-width="0.5844" stroke-miterlimit="10" d="M397.654,33.306c3.772,3.815,4.299,7.812,1.314,12.824
		c-2.884,4.844-2.416,3.604,4.501,4.518c4.353,0.573,4.981,0.193,5.03,1.482c0.073,1.916-2.252,2.305-8.578,1.43
		c-4.853-0.671-5.071-0.633-7.411,1.304c-3.971,3.284-8.099,2.23-6.229-1.592c0.733-1.501,4.196-3.745,5.877-3.81
		c1.902-0.072,4.968-6.115,4.883-9.623c-0.103-4.239-1.683-5.245-4.632-2.952c-2.558,1.988-4.164,2.215-4.82,0.679
		c-0.305-0.71,0.533-1.867,2.449-3.384C393.52,31.428,395.564,31.192,397.654,33.306z"/>
	<path stroke="#000000" stroke-width="0.5844" stroke-miterlimit="10" d="M420.94,32.417c3.773,3.815,4.299,7.812,1.315,12.824
		c-2.884,4.844-2.416,3.604,4.5,4.517c4.353,0.574,4.982,0.194,5.031,1.483c0.073,1.916-2.253,2.304-8.578,1.43
		c-4.853-0.672-5.071-0.633-7.411,1.303c-3.971,3.285-8.099,2.231-6.229-1.591c0.734-1.501,4.197-3.745,5.878-3.81
		c1.901-0.072,4.968-6.115,4.883-9.623c-0.103-4.239-1.683-5.245-4.633-2.952c-2.558,1.989-4.165,2.215-4.819,0.68
		c-0.305-0.711,0.531-1.867,2.449-3.385C416.806,30.539,418.852,30.303,420.94,32.417z"/>
</g>
<g>
	<path d="M146.434,50.998c0-4.497,0.68-8.865,2.04-13.104c1.36-4.239,3.352-8.117,5.975-11.634c2.623-3.517,5.44-6.039,8.452-7.565
		l1.057,2.506c-1.603,0.97-3.194,2.383-4.772,4.239c-1.579,1.856-2.988,4.064-4.227,6.622c-1.238,2.558-2.24,5.43-3.005,8.617
		s-1.148,6.803-1.148,10.845c0,4.312,0.577,8.458,1.731,12.438c1.153,3.981,2.738,7.493,4.754,10.536
		c2.016,3.042,4.238,5.327,6.667,6.854l-1.057,2.383c-3.085-1.568-5.938-4.1-8.562-7.597c-2.623-3.496-4.597-7.343-5.92-11.541
		C147.096,60.399,146.434,55.866,146.434,50.998z"/>
</g>
<g>
	<path d="M442.141,51.46c0,4.539-0.662,8.907-1.986,13.104c-1.323,4.198-3.285,8.04-5.884,11.526
		c-2.599,3.485-5.465,6.033-8.598,7.643l-1.057-2.383c2.38-1.444,4.584-3.682,6.612-6.715c2.028-3.032,3.625-6.564,4.791-10.597
		c1.166-4.033,1.749-8.411,1.749-13.136c0-4.27-0.583-8.39-1.749-12.361c-1.166-3.971-2.775-7.519-4.827-10.644
		c-2.053-3.125-4.244-5.399-6.576-6.823l1.057-2.383c3.061,1.589,5.89,4.126,8.488,7.612c2.599,3.486,4.578,7.354,5.938,11.604
		S442.141,46.676,442.141,51.46z"/>
</g>
</svg>
